<?xml version="1.0" encoding="utf-8"?>
<!-- Generator: Adobe Illustrator 22.0.1, SVG Export Plug-In . SVG Version: 6.00 Build 0)  -->
<svg version="1.1" id="Layer_1" xmlns="http://www.w3.org/2000/svg" xmlns:xlink="http://www.w3.org/1999/xlink" x="0px" y="0px"
	 viewBox="0 0 400 97.5" style="enable-background:new 0 0 400 97.5;" xml:space="preserve">
<style type="text/css">
	.st0{fill:#3A709D;}
	.st1{fill:#FFD43B;}
	.st2{fill:#FFFFFF;}
</style>
<g>
	<g>
		<path id="path1948_12_" class="st0" d="M40.1,7.9c-3.3,0-6.4,0.3-9.1,0.8c-8.1,1.4-9.5,4.4-9.5,9.9v7.3h19.1v2.4H21.5h-7.2
			c-5.5,0-10.4,3.3-11.9,9.7c-1.7,7.3-1.8,11.8,0,19.4C3.8,63,7,67,12.5,67h6.6v-8.7c0-6.3,5.4-11.8,11.9-11.8h19
			c5.3,0,9.5-4.4,9.5-9.7V18.6c0-5.2-4.4-9-9.5-9.9C46.7,8.2,43.3,7.9,40.1,7.9z M29.8,13.8c2,0,3.6,1.6,3.6,3.6
			c0,2-1.6,3.6-3.6,3.6c-2,0-3.6-1.6-3.6-3.6C26.2,15.4,27.8,13.8,29.8,13.8z"/>
		<path id="path1950_12_" class="st1" d="M61.9,28.3v8.5c0,6.6-5.6,12.1-11.9,12.1H31c-5.2,0-9.5,4.5-9.5,9.7v18.1
			c0,5.2,4.5,8.2,9.5,9.7c6,1.8,11.8,2.1,19,0c4.8-1.4,9.5-4.2,9.5-9.7v-7.3h-19V67h19h9.5c5.5,0,7.6-3.9,9.5-9.7
			c2-6,1.9-11.7,0-19.4c-1.4-5.5-4-9.7-9.5-9.7H61.9z M51.2,74.3c2,0,3.6,1.6,3.6,3.6c0,2-1.6,3.6-3.6,3.6c-2,0-3.6-1.6-3.6-3.6
			C47.6,75.9,49.2,74.3,51.2,74.3z"/>
	</g>
	<g>
		<g>
			<path class="st2" d="M170.4,52.4c-1.6,3.5-7.9,12.9-9.4,14.6c-2.9,3.3-6.4,3.8-10.3,2c-2.6-1.2-4-2.8-5.5-5.2
				c-2.7-4.3-3.8-11-3.2-16.1c0.6-4.9,1-9.7,3.6-14c2-3.2,4.5-5.9,7.9-7.5c3.3-1.6,6.4-1.1,9.4,0.8c1.5,1,2.4,2.5,2.5,4.3
				c0.1,2.8,0,5.5-0.9,8.1c-1.2,3.6-2.9,7.1-5.5,10c-2.8,3.2-6.3,4.4-10.7,3.9c0,0.4-0.1,0.8-0.1,1.2c0.2,3.1,2,12.6,5.4,12.6
				c3.8,0,12.4-14.5,15.1-20L170.4,52.4z M160.9,29.1c-3.8,0-7.4,5-9,8.2c-2.2,4.3-3,8.9-3.5,13.6c0,0.2,0.1,0.4,0.2,0.6
				c2.3-0.2,4.2-0.9,5.7-2.3c4.2-3.9,6.8-8.7,7.8-14.3C162.3,33.6,163.4,30.3,160.9,29.1z"/>
		</g>
	</g>
	<path class="st2" d="M238.2,58.9c-2,0-3.8-0.6-5.4-2.5c0.3-1.1,1.1-1.4,1.9-1.4c17.6,0,28.8-17.4,32.6-23.7
		c1.6-2.8,2.5-5.8,3.3-8.9c0.9-3.6,1.4-7.2,0.5-10.8c-1-4.2-1.9-4.4-5.7-4.9c-2.2-0.3-4.5,0-6.7,0.6c-7.8,2.1-14.4,6.1-19.6,12.3
		c-2.4,2.9-4.2,6.2-4.8,10c-0.2,1.3-0.3,2.7-0.2,4c0.2,2,0.9,3.8,2.9,4.8c0.3,0.1,0.5,0.4,0.8,0.6c0.1,0.1,0,0.2,0.1,0.6
		c-0.6-0.1-1.2-0.1-1.7-0.3c-3.8-1.1-6.3-4.3-6.5-8.5c-0.2-4.5,1.2-8.5,3.7-12.2c1.5-2.2,3.2-4.2,5-6.1c4.9-4.7,10.5-8.2,17.2-9.8
		c7.4-1.8,13.5,0.2,18.8,7c1.6,2.1,2.5,4.6,2.7,7.2c0.3,4.6-0.1,9.2-1.8,13.4C272.3,37.5,259.4,58.9,238.2,58.9z"/>
	<path class="st2" d="M102.3,52.9c-0.7,0-1.3,0.4-1.4,1.2c1.6,2.2,4.5,3.1,7.4,3.1c27.6,0,36.9-36.2,37-40.7
		C145.7,7.5,136-1,127.1,0c-4.1,0.5-7.9,1.8-11.4,3.7c-6.1,3.3-11.2,7.7-14.7,13.7c-2,3.5-3.3,7.3-3,11.4c0.2,4.4,3.2,7.9,7.2,8.6
		c0.3,0.1,0.7-0.1,1.1-0.1c-0.2-0.3-0.2-0.4-0.3-0.4c-0.2-0.2-0.4-0.4-0.7-0.5c-2-0.9-2.8-2.7-3-4.8c-0.1-1.3-0.1-2.7,0.2-4
		c0.6-3.5,2.2-6.7,4.4-9.5c5.3-6.6,12.1-10.8,20.3-13c3-0.8,6-0.9,9-0.1c1,0.3,1.9,0.8,2.2,1.9C142.2,21.2,126.4,52.9,102.3,52.9z"
		/>
	<path class="st2" d="M120.9,51.7c0.6,1.3,11.1,33.8,25.2,33.1c4.7-0.2,7-5.7,6.5-5.7c-0.6,0-2.4,1.8-4.3,1.9
		c-8.3,0.4-21.1-29.7-21.2-32.6L120.9,51.7z"/>
	<path class="st2" d="M303.7,41.3c2.6-0.1,13.9,0.4,16.6,0c-1.2-1.7-2.5-4-4.5-4.1c-1-0.1-12.2-0.2-12.2-0.2c0-0.8,0.1-25-0.1-27.8
		c-0.1-1.2-2.3-2.4-3.2-3.1c-2.3-1.5-3-1.2-3.2,1.5c0,9.3,0,29.3,0,29.3c-1.2,0-8.7-0.4-8.7,0.4c0,0.7,5.5,4,6,4c1.5,0,2.7,0,2.7,0
		s-0.1,23.8,0.1,26.6c0.1,1.2,2.3,2.4,3.2,3.1c2.3,1.5,3,1.2,3.2-1.5L303.7,41.3z"/>
	<path class="st2" d="M345.4,54.8c0.4-5.7,1-12.6,3.6-19.1c0.4-0.9,0.9-1.8,1.4-2.7c2.3-3.5,5.2-4.2,9.2-2.1
		c0.6,0.3,1.2,0.5,1.8,0.6c2.4,0.4,3.3,1.2,3.9,3.5c0.7,3.4,1,6.7,0.7,10.2c-0.6,5.9-1.5,11.7-3.4,17.3c-0.5,1.5-1.2,2.9-1.9,4.3
		c-0.8,1.6-2.2,2.5-4,2.8c-4.5,0.7-7.3-0.3-9.6-5C345.9,62.3,345.4,59.6,345.4,54.8z M355.4,67.3c0.4,0,1-1.4,1.4-2.1
		c0.7-1.5,1.3-3,1.8-4.5c1.6-5,2.3-10.1,3.1-15.3c0.5-3.4,0.1-6.1-0.6-9.4c-0.1-0.6-0.3-1.2-0.6-1.7c-0.9-1.6-2.5-1.8-3.6-0.4
		c-1.9,2.5-4.6,16.1-5,22c-0.2,2.6,0.2,5.3,0.9,7.8C353.1,65,354.9,67.3,355.4,67.3z"/>
	<path class="st2" d="M398.9,47.2c0,0-0.1-4.8-0.2-7.2c0-1.9-0.3-3.9-0.9-5.8c-0.6-2.2-3.7-3.3-5.9-3.8c-1-0.2-1.9-0.1-2.6,0.8
		c-1.3,1.6-10,20.5-10.6,21.9c0-0.9,0-1.9,0-2.8c0.1-2.1,0.1-4.7,0-7.6c0-2.8,0-5.1-0.1-5.9c-0.1-1.2-2.3-2.4-3.2-3.1
		c-2.3-1.5-3-1.2-3.2,1.5c0,3.5,0.3,35.3,0.3,35.8c0.1,1,0.7,1.6,1.8,1.7c1.8,0.2,3.7,0.2,4.1-0.7c4.5-22,11.9-33.5,14.7-38.1
		c0,1.1,0,1.9,0,2.6c-0.2,3.8-0.5,7.6-0.7,11.4c0,0.2-0.2,24,0,26.8c0.1,1.2,2.3,2.4,3.2,3.1c2.3,1.5,3,1.2,3.2-1.5
		C398.9,70.9,398.9,47.4,398.9,47.2z"/>
	<path class="st2" d="M197.3,33.1c0.1-1.8-0.9-3.4-2.5-4c-0.2-0.1-0.5-0.2-0.7-0.3c-1.5-0.4-1.7-0.3-2.1,1.2c-0.7,2.5-2,7.9-2.2,8.5
		c-0.7-1.5-1.3-3.4-2-4.6c-1.8-3.2-4.5-5.4-8.3-5.4c-6,0-14.9,16.6-8.7,35.8c1.1,3.5,2.8,4,6.3,4.6c1.3,0.2,2.2-0.2,2.8-1.3
		c0.8-1.5,6.6-12.5,8-16.7c0.2,0.8,1,22.9,2,27.2c0.3,1.5,1.3,2.6,2.8,3.1c1.1,0.3,3.5,0.8,4.5,0.5c-0.7-1.9-1.1-6.3-1.2-8.5
		c-0.1-2.4-0.5-23.1,0.5-31.1C196.6,39.2,197,36.1,197.3,33.1z M185.4,46.2c-3.2,6.8-6.9,15.1-7.8,15.8c-2.1,0-3.7-29.3,4.1-29.3
		c0.9,0,3.8,5,4.3,6.2C186.8,41.4,186.5,43.8,185.4,46.2z"/>
	<path class="st2" d="M252.2,22c0-0.1,0-0.2,0-0.2c0,0,0,0,0,0c0-0.1,0-0.2,0-0.3c0-0.1-0.1-0.3-0.2-0.4c-0.5-0.9-2.3-1.8-3-2.3
		c-2.2-1.6-2.9-1.4-3.3,1.3c-0.9,5.3-0.9,9.5-1.3,20c-0.4,8.5-0.4,24.3-0.4,32.8c0,1.2,2.3,2.4,3.2,3.1c2.3,1.5,3,1.2,3.2-1.5
		C250,64.9,252.2,24.9,252.2,22z"/>
	<path class="st2" d="M119.9,22c0-0.1,0-0.2,0-0.2c0,0,0,0,0,0c0-0.1,0-0.2,0-0.3c0-0.1-0.1-0.3-0.2-0.4c-0.5-0.9-2.3-1.8-3-2.3
		c-2.2-1.6-2.9-1.4-3.3,1.3c-0.9,5.3-0.9,9.5-1.3,20c-0.4,8.5-0.4,24.3-0.4,32.8c0,1.2,2.3,2.4,3.2,3.1c2.3,1.5,3,1.2,3.2-1.5
		C117.7,64.9,119.9,24.9,119.9,22z"/>
	<path class="st2" d="M217.6,70.5c-0.6,0-3.5,1.9-5,1.9s-2-9-2.1-11.7c0,0,1.1-43.6,1-46.4c-0.1-1.2-2.2-2.4-3.2-3.1
		c-2.3-1.5-3-1.2-3.2,1.5c-1,13.4-1.1,47.9-1,50c0,1.8,0,13.1,6.7,13.1C215.6,75.9,218.1,70.5,217.6,70.5z"/>
	<path class="st2" d="M339.3,41.4c-0.3-2.5-1.7-4.2-4-5.2c-2.3-1-3.6-0.7-5.4,1.1c-2.8,2.7-9.1,18.7-9.1,18.7c0-1.9,0-31.3,0-31.3
		c0-5.5,0-10.7-0.1-11.9c-0.1-1.2-2.3-2.4-3.2-3.1c-1.8-1.2-2.6-1.2-3,0.2c0,0,0,0,0,0c0,0,0,0.1,0,0.2c-0.1,0.3-0.1,0.7-0.1,1.2
		c0,7.9,0,29.1,0,29.1c0,3,0,31.3,0.1,31.7c0.1,1.2,2.3,2.4,3.2,3.1c1.8,1.2,2.6,1.2,3-0.1c1.7-9.6,11.9-36.3,13.6-36.4
		c0,1,0.1,1.9,0,2.7c-0.2,1.5-0.6,34.9-0.5,36.9c0,1.2,2.3,2.4,3.2,3.1c2.3,1.5,3,1.2,3.2-1.5C340,77.7,339.6,43.5,339.3,41.4z"/>
	<path class="st2" d="M288,44.5c-0.1-1.2-2.1-2.1-3-2.7c-2.3-1.5-3-1.2-3.2,1.5c-3.9,23.3-9.3,31.5-10.3,31.5
		c-0.6,0-0.4-8.7-0.4-11.4l0-2c0-5.9,0-3.2-0.1-6c-0.1-1.2-2.3-2.4-3.2-3.1c-2.3-1.5-3-1.2-3.2,1.5c0,2.3,0.1,13.4,0.1,15.1
		c0.3,2.6,0.6,6,3.1,7.3c4.6,2.4,6.7,1.8,9.4-2.1c1.2-1.8,4.2-10.1,4.4-10.4c-0.1,5.8,0.3,27-6.4,27c-5.9,0-7.2-7.2-7.7-7.2
		c-0.4,0-1.6,11.5,8.9,11.5c10.5,0,12.1-13.6,12.1-25.8S288.1,46.4,288,44.5z"/>
</g>
</svg>
