<?xml version="1.0" encoding="UTF-8" standalone="no"?>
<svg width="139px" height="26px" viewBox="0 0 139 26" version="1.1" xmlns="http://www.w3.org/2000/svg" xmlns:xlink="http://www.w3.org/1999/xlink">
    <!-- Generator: Sketch 3.7.2 (28276) - http://www.bohemiancoding.com/sketch -->
    <title>Logo</title>
    <desc>Created with Sketch.</desc>
    <defs>
        <polygon id="path-1" points="13.5291008 20.7379792 13.5291008 0.0160208424 6.78525232 0.0160208424 0.0414038646 0.0160208424 0.0414038646 20.7379792 13.5291008 20.7379792"></polygon>
    </defs>
    <g id="Symbols" stroke="none" stroke-width="1" fill="none" fill-rule="evenodd" opacity="0.2">
        <g id="Footer" transform="translate(-570.000000, -51.000000)">
            <g id="Logo">
                <g transform="translate(570.000000, 51.000000)">
                    <polygon id="Fill-1" fill="#FFFFFF" points="0.000450586193 20.9856014 14.8212318 20.9851007 -5.00651327e-05 6.16431951"></polygon>
                    <g id="Group-17" transform="translate(19.873354, 0.136678)">
                        <path d="M11.5474227,13.4530518 C11.2500358,13.0475243 10.8234809,12.6985703 10.2797735,12.4167036 C9.74157336,12.1383415 9.03915955,11.9591083 8.19205751,11.8835099 L5.05097109,11.5856224 C4.64043701,11.5515781 4.31401234,11.4930019 4.07670361,11.4108951 C3.85541573,11.3347961 3.69020079,11.2466814 3.58606532,11.1495551 C3.49194287,11.0619411 3.43136406,10.9588069 3.40032367,10.8341448 C3.36127287,10.6784422 3.34124682,10.4927005 3.34124682,10.2819263 C3.34124682,9.80881084 3.47291812,9.49690506 3.74377048,9.32768491 C3.9585499,9.19351036 4.43917517,9.03380259 5.51056901,9.03380259 L6.47232021,9.03380259 L7.66437101,9.03380259 C8.09693376,9.03380259 8.61060202,9.03830845 9.19085691,9.04732017 C9.76760723,9.05683255 10.4354761,9.07035013 11.1929616,9.08787293 L11.1999707,9.08787293 C11.340153,9.08787293 11.4613107,8.98974527 11.4898478,8.85206615 L11.9779828,6.49499971 C11.9955056,6.40938834 11.9744783,6.3202724 11.9204079,6.25168317 C11.8658369,6.18309394 11.7842308,6.14153988 11.6966168,6.13903662 C10.5190849,6.10298972 9.44919299,6.08446563 8.51798152,6.08446563 L5.8089572,6.08446563 C3.81486297,6.08446563 2.34795459,6.45795151 1.44878481,7.19491027 C0.532092229,7.94588725 0.0669871474,8.99324983 0.0669871474,10.3094622 L0.0669871474,10.7700614 C0.0669871474,11.2326632 0.140082241,11.6922611 0.284770474,12.1348369 C0.431961964,12.5859237 0.665265482,12.9989611 0.979173863,13.3614326 C1.29308224,13.7244049 1.70812219,14.0318048 2.21277873,14.27412 C2.7119281,14.5144326 3.32122076,14.6651287 4.02413523,14.7222029 L7.27186037,15.0200905 C7.6768873,15.0541348 7.99530154,15.1162155 8.22059464,15.2043302 C8.43036754,15.2869376 8.59057597,15.385566 8.69471144,15.4967105 C8.79484171,15.6038499 8.86042703,15.7240063 8.89347002,15.8641886 C8.93302147,16.0309055 8.95304753,16.2131426 8.95304753,16.4048921 C8.95304753,16.9776372 8.80535539,17.3571309 8.51397631,17.5333601 C8.28017214,17.6745438 7.74347392,17.8427627 6.51287297,17.8427627 C5.68379437,17.8427627 4.76409788,17.8382568 3.77931673,17.8292451 C2.77400887,17.8202334 1.77220556,17.8067158 0.801943293,17.7886923 L0.796436129,17.7886923 C0.656253758,17.7886923 0.535096137,17.88682 0.506559011,18.0244991 L0.0189246201,20.3815655 C0.00140182371,20.4681782 0.0229298307,20.5577948 0.0780014765,20.6268847 C0.133073122,20.6959746 0.216181242,20.7365273 0.304295876,20.7380293 C1.38319948,20.7550514 2.47311742,20.7690697 3.5440106,20.778582 C4.65345394,20.7875938 5.5806602,20.7920996 6.37769711,20.7920996 C8.35076398,20.7920996 9.84320558,20.411104 10.8124666,19.6596263 C11.8052581,18.8911265 12.3089134,17.8052138 12.3089134,16.4319272 L12.3089134,16.0524335 C12.3089134,15.6363923 12.256345,15.198823 12.1522095,14.7527427 C12.0440688,14.2911422 11.8403037,13.8535729 11.5474227,13.4530518" id="Fill-2" fill="#FFFFFF"></path>
                        <path d="M23.5107364,12.6530611 L30.0782805,6.66076537 C30.1423639,6.60669502 30.1834173,6.52558951 30.1834173,6.43497162 C30.1834173,6.27125864 30.051746,6.13908669 29.888033,6.13908669 L29.8865311,6.13908669 L26.2833435,6.13908669 C26.2082458,6.13908669 26.1356513,6.16762381 26.0805797,6.2191909 L20.7276157,11.2502361 L20.7276157,0.312005906 C20.7276157,0.148292923 20.5949431,0.0161209727 20.4312301,0.0161209727 L17.5865293,0.0161209727 C17.423317,0.0161209727 17.2906444,0.148292923 17.2906444,0.312005906 L17.2906444,20.4416938 C17.2906444,20.6054067 17.423317,20.7380793 17.5865293,20.7380793 L20.4312301,20.7380793 C20.5949431,20.7380793 20.7276157,20.6054067 20.7276157,20.4416938 L20.7276157,14.4363811 L26.6378046,20.6459595 C26.6938776,20.7045357 26.7714785,20.7380793 26.8520834,20.7380793 L30.5909475,20.7380793 C30.7096019,20.7380793 30.8172419,20.6669869 30.8638025,20.5578449 C30.9098624,20.4487029 30.8868324,20.3220381 30.804225,20.2364267 L23.5107364,12.6530611 Z" id="Fill-4" fill="#FFFFFF"></path>
                        <path d="M36.8266599,19.2068873 C37.80293,19.8992881 39.2047537,20.249744 40.9940815,20.249744 C41.6569439,20.249744 42.2221792,20.2172017 42.674768,20.1526177 C43.1353672,20.0865317 43.5293798,19.9949125 43.8452908,19.8797627 C44.1672096,19.763111 44.4420672,19.6224279 44.6628544,19.4622195 C44.6858844,19.445698 44.7084137,19.4291765 44.7304424,19.412655 C44.7149222,19.9974158 44.6558453,20.4905573 44.5547138,20.8820667 C44.4425679,21.3126268 44.2568262,21.6525691 44.001494,21.8918804 C43.7421566,22.1356976 43.3992105,22.3119268 42.9811666,22.4170636 C42.5360876,22.5277076 41.9858718,22.5842812 41.3460394,22.5842812 L39.2873612,22.5842812 C38.6280034,22.5842812 37.8389769,22.5657571 36.9418097,22.5297102 L36.9297941,22.5297102 C36.7911136,22.5297102 36.6704567,22.6263359 36.6404176,22.762513 L36.125748,25.1200801 C36.1072239,25.2056915 36.1277506,25.2958088 36.1813203,25.3648986 C36.2358913,25.4339885 36.3174975,25.4760432 36.4056121,25.4790471 C36.9488188,25.4965699 37.4374545,25.5100875 37.8720199,25.5195999 C38.3100898,25.5286116 38.7226265,25.5331175 39.0976143,25.5331175 L40.2085596,25.5331175 L41.3735752,25.5331175 C42.5315817,25.5331175 43.5469026,25.4154644 44.3910008,25.1841635 C45.2556256,24.9458535 45.9800681,24.5633559 46.5448028,24.0466837 C47.1135427,23.5255057 47.5335891,22.8441192 47.7924259,22.0205478 C48.0442535,21.2185044 48.1714189,20.2312199 48.1714189,19.0872317 L48.1714189,6.43477136 C48.1714189,6.27155903 48.039247,6.13888643 47.875534,6.13888643 L45.0308332,6.13888643 C44.8676208,6.13888643 44.7349482,6.27155903 44.7349482,6.43477136 L44.7349482,14.5353098 C44.7349482,15.0875282 44.6918922,15.553134 44.6067815,15.9181088 C44.5291805,16.2525439 44.3874962,16.5148851 44.1747194,16.7201522 C43.9634445,16.9239173 43.6475335,17.0716094 43.2354975,17.1582221 C42.7889165,17.2528452 42.1806252,17.3009077 41.4271449,17.3009077 C40.7532682,17.3009077 40.2200746,17.2458361 39.8435848,17.1366941 C39.498636,17.0370645 39.247309,16.8923762 39.0976143,16.7066346 C38.9434137,16.5158865 38.8462873,16.2740719 38.8087385,15.9876993 C38.7651818,15.659272 38.7431532,15.2712673 38.7431532,14.833698 L38.7431532,6.43477136 C38.7431532,6.27155903 38.6104806,6.13888643 38.4472682,6.13888643 L35.6025674,6.13888643 C35.4388544,6.13888643 35.3061818,6.27155903 35.3061818,6.43477136 L35.3061818,15.4840441 C35.3061818,17.2393276 35.8178475,18.4919572 36.8266599,19.2068873" id="Fill-6" fill="#FFFFFF"></path>
                        <path d="M67.6573693,5.70542251 C66.6881083,5.70542251 65.796949,5.852614 65.0084231,6.14349242 C64.3460614,6.38781026 63.8173736,6.71423493 63.4308708,7.11575729 C63.044368,6.71423493 62.5156802,6.38781026 61.8543198,6.14349242 C61.0647926,5.852614 60.1736333,5.70542251 59.204873,5.70542251 C57.289381,5.70542251 55.8139615,6.07089797 54.8181661,6.79083458 C53.7928321,7.5333005 53.2731561,8.79894705 53.2731561,10.5532293 L53.2731561,20.4415936 C53.2731561,20.6053066 53.4058287,20.7379792 53.569041,20.7379792 L56.4137418,20.7379792 C56.5774548,20.7379792 56.7101274,20.6053066 56.7101274,20.4415936 L56.7101274,11.1219692 C56.7101274,10.6849006 56.7321561,10.2968958 56.7757127,9.96846855 C56.8132616,9.67959273 56.907384,9.43577553 57.0550762,9.24352543 C57.1967605,9.05978639 57.430064,8.91609946 57.7479776,8.81747115 C58.0969316,8.70933046 58.5870692,8.65475947 59.204873,8.65475947 C59.8391982,8.65475947 60.3333411,8.70933046 60.6732833,8.8169705 C60.9851891,8.91609946 61.2204952,9.06178899 61.3721926,9.24903259 C61.5278951,9.442284 61.6225182,9.67759013 61.6610684,9.96846855 C61.7041244,10.300901 61.726153,10.6889058 61.726153,11.1219692 L61.726153,20.4415936 C61.726153,20.6053066 61.8588256,20.7379792 62.0225386,20.7379792 L64.8672395,20.7379792 C65.0304518,20.7379792 65.1631244,20.6053066 65.1631244,20.4415936 L65.1631244,10.7429761 C65.1631244,10.3840091 65.1931635,10.0630916 65.2517397,9.78823407 C65.3033068,9.54291492 65.4074422,9.34165309 65.568652,9.17293359 C65.7288604,9.00521539 65.9656685,8.87754931 66.2730684,8.79293923 C66.6070028,8.70132004 67.0726086,8.65475947 67.6573693,8.65475947 C68.2921952,8.65475947 68.786338,8.70933046 69.1257796,8.8169705 C69.4381861,8.91660011 69.6734922,9.06178899 69.8246889,9.24903259 C69.9808921,9.442284 70.0755152,9.67759013 70.1135647,9.96846855 C70.1571214,10.2988984 70.17915,10.6869032 70.17915,11.1219692 L70.17915,20.4415936 C70.17915,20.6053066 70.3118226,20.7379792 70.475035,20.7379792 L73.3197358,20.7379792 C73.4834488,20.7379792 73.6161214,20.6053066 73.6161214,20.4415936 L73.6161214,10.5532293 C73.6161214,8.7984464 73.0914388,7.53279985 72.0565925,6.79033393 C71.0517853,6.07039732 69.57186,5.70542251 67.6573693,5.70542251 Z" id="Fill-8" fill="#FFFFFF"></path>
                        <path d="M81.8586445,6.13883636 L79.0139437,6.13883636 C78.8502307,6.13883636 78.7180588,6.27150896 78.7180588,6.43472129 L78.7180588,20.4419441 C78.7180588,20.6051564 78.8502307,20.737829 79.0139437,20.737829 L81.8586445,20.737829 C82.0223575,20.737829 82.1545295,20.6051564 82.1545295,20.4419441 L82.1545295,6.43472129 C82.1545295,6.27150896 82.0223575,6.13883636 81.8586445,6.13883636" id="Fill-10" fill="#FFFFFF"></path>
                        <path d="M98.6280108,6.81576702 C97.5791462,6.07880827 95.9405144,5.70532238 93.757174,5.70532238 C91.5738336,5.70532238 89.9352018,6.07880827 88.8863373,6.81576702 C87.8049304,7.57575573 87.2567172,8.83289121 87.2567172,10.5531292 L87.2567172,20.4419941 C87.2567172,20.6052065 87.3893898,20.7378791 87.5531028,20.7378791 L90.3978036,20.7378791 C90.561016,20.7378791 90.6936886,20.6052065 90.6936886,20.4419941 L90.6936886,11.1218691 C90.6936886,10.6878044 90.7202231,10.3023028 90.7717902,9.97637884 C90.8168488,9.68950563 90.9254901,9.45620211 91.1027207,9.263952 C91.2799513,9.07270319 91.5688271,8.92400975 91.9628397,8.82137623 C92.387392,8.71073228 92.9911775,8.65465934 93.757174,8.65465934 C94.5231705,8.65465934 95.126956,8.71073228 95.552009,8.82137623 C95.9460216,8.92400975 96.2348974,9.07320384 96.4116273,9.263952 C96.5893586,9.45670276 96.6979999,9.68950563 96.7430585,9.97587818 C96.7946256,10.3028035 96.8206595,10.6888057 96.8206595,11.1218691 L96.8206595,20.4419941 C96.8206595,20.6052065 96.9533321,20.7378791 97.1165444,20.7378791 L99.9612452,20.7378791 C100.124958,20.7378791 100.257631,20.6052065 100.257631,20.4419941 L100.257631,10.5531292 C100.257631,8.83289121 99.7094176,7.57525508 98.6280108,6.81576702" id="Fill-12" fill="#FFFFFF"></path>
                        <g id="Group-16" transform="translate(105.289477, 0.000000)">
                            <mask id="mask-2" fill="white">
                                <use xlink:href="#path-1"></use>
                            </mask>
                            <g id="Clip-15"></g>
                            <path d="M10.0924799,17.8156774 L6.81221239,17.8156774 C6.0612354,17.8156774 5.45494665,17.7636097 5.00936697,17.6609762 C4.6048407,17.5673544 4.3044499,17.3896231 4.09317504,17.1172688 C3.87338911,16.8354021 3.72469567,16.4268706 3.65109992,15.9031894 C3.57249766,15.3409579 3.53194491,14.5889796 3.53194491,13.6687825 L3.53194491,12.6394434 C3.53194491,11.7733166 3.57249766,11.0583865 3.65109992,10.5141785 C3.72419502,10.009522 3.87188716,9.61550936 4.09017114,9.34315504 C4.30394925,9.07630788 4.60233744,8.89657406 5.0028585,8.79444119 C5.4369232,8.68379724 6.02769177,8.6277243 6.75814205,8.6277243 C7.4570513,8.6277243 8.03980944,8.67128096 8.49089629,8.75739299 C8.90042907,8.83699655 9.22384983,8.9886939 9.45114553,9.20797918 C9.67994319,9.42926707 9.84365617,9.74067219 9.93827927,10.1341841 C10.0404121,10.5612397 10.0924799,11.1214685 10.0924799,11.7993504 L10.0924799,17.8156774 Z M13.2330656,0.0160208424 L10.3883648,0.0160208424 C10.2251525,0.0160208424 10.0924799,0.148693444 10.0924799,0.311905776 L10.0924799,6.46190666 C9.77456629,6.28117153 9.38806346,6.12697092 8.93747727,6.00080679 C8.23756672,5.80455147 7.43151808,5.70542251 6.54136003,5.70542251 C5.28622715,5.70542251 4.22785025,5.85211335 3.3962684,6.14148981 C2.5456618,6.4378754 1.85926883,6.89196615 1.3566149,7.49074513 C0.857966177,8.08501826 0.509012203,8.82498092 0.31926535,9.69060706 C0.134525011,10.5286974 0.0414038646,11.5209883 0.0414038646,12.6394434 L0.0414038646,13.6687825 C0.0414038646,14.9154043 0.1490439,15.991304 0.361320062,16.8674438 C0.579103388,17.7691169 0.953089929,18.5190925 1.4717647,19.0953422 C1.99394403,19.6755971 2.69585719,20.1011507 3.55747812,20.3594868 C4.39456714,20.6108138 5.4349206,20.7379792 6.65000136,20.7379792 L10.469971,20.7379792 C11.6434977,20.7379792 12.428519,20.5337135 12.8685915,20.1141677 C13.307162,19.6966245 13.5294512,19.0227478 13.5294512,18.1115624 L13.5294512,0.311905776 C13.5294512,0.148693444 13.3967786,0.0160208424 13.2330656,0.0160208424 L13.2330656,0.0160208424 Z" id="Fill-14" fill="#FFFFFF" mask="url(#mask-2)"></path>
                        </g>
                    </g>
                </g>
            </g>
        </g>
    </g>
</svg>