<svg xmlns="http://www.w3.org/2000/svg" width="185" height="50" viewBox="0 0 185 50">
  <defs>
    <linearGradient id="a" x1="45.244%" x2="62.934%" y1="-116.042%" y2="672.038%">
      <stop offset="0%" stop-color="#14A3EB"/>
      <stop offset="100%" stop-color="#FF28B8"/>
    </linearGradient>
    <linearGradient id="b" x1="9.291%" x2="192.675%" y1="-85.566%" y2="704.85%">
      <stop offset="0%" stop-color="#14A3EB"/>
      <stop offset="100%" stop-color="#FF28B8"/>
    </linearGradient>
    <linearGradient id="c" x1="29.023%" x2="183.688%" y1="-102.478%" y2="696.404%">
      <stop offset="0%" stop-color="#14A3EB"/>
      <stop offset="100%" stop-color="#FF28B8"/>
    </linearGradient>
    <linearGradient id="d" x1="-139.59%" x2="796.739%" y1="-110.078%" y2="680.338%">
      <stop offset="0%" stop-color="#14A3EB"/>
      <stop offset="100%" stop-color="#FF28B8"/>
    </linearGradient>
    <linearGradient id="e" x1="-1.587%" x2="236.78%" y1="-122.958%" y2="675.924%">
      <stop offset="0%" stop-color="#14A3EB"/>
      <stop offset="100%" stop-color="#FF28B8"/>
    </linearGradient>
    <linearGradient id="f" x1="-163.078%" x2="773.778%" y1="-129.795%" y2="660.621%">
      <stop offset="0%" stop-color="#14A3EB"/>
      <stop offset="100%" stop-color="#FF28B8"/>
    </linearGradient>
    <linearGradient id="g" x1="16.627%" x2="167.021%" y1="-137.761%" y2="636.252%">
      <stop offset="0%" stop-color="#14A3EB"/>
      <stop offset="100%" stop-color="#FF28B8"/>
    </linearGradient>
    <linearGradient id="h" x1="-190.683%" x2="745.646%" y1="-153.165%" y2="637.251%">
      <stop offset="0%" stop-color="#14A3EB"/>
      <stop offset="100%" stop-color="#FF28B8"/>
    </linearGradient>
    <linearGradient id="i" x1="-29.207%" x2="201.697%" y1="-179.639%" y2="618.048%">
      <stop offset="0%" stop-color="#14A3EB"/>
      <stop offset="100%" stop-color="#FF28B8"/>
    </linearGradient>
    <linearGradient id="j" x1="-241.784%" x2="695.072%" y1="-196.136%" y2="594.28%">
      <stop offset="0%" stop-color="#14A3EB"/>
      <stop offset="100%" stop-color="#FF28B8"/>
    </linearGradient>
    <linearGradient id="k" x1="1.512%" x2="149.424%" y1="-208.298%" y2="579.724%">
      <stop offset="0%" stop-color="#14A3EB"/>
      <stop offset="100%" stop-color="#FF28B8"/>
    </linearGradient>
    <linearGradient id="l" x1="4.384%" x2="159.048%" y1="-229.735%" y2="569.146%">
      <stop offset="0%" stop-color="#14A3EB"/>
      <stop offset="100%" stop-color="#FF28B8"/>
    </linearGradient>
    <linearGradient id="m" x1="-38.432%" x2="192.44%" y1="-244.607%" y2="561.703%">
      <stop offset="0%" stop-color="#14A3EB"/>
      <stop offset="100%" stop-color="#FF28B8"/>
    </linearGradient>
    <linearGradient id="n" x1="-50.464%" x2="180.505%" y1="-252.981%" y2="544.705%">
      <stop offset="0%" stop-color="#14A3EB"/>
      <stop offset="100%" stop-color="#FF28B8"/>
    </linearGradient>
    <linearGradient id="o" x1="-53.942%" x2="176.93%" y1="-265.135%" y2="532.552%">
      <stop offset="0%" stop-color="#14A3EB"/>
      <stop offset="100%" stop-color="#FF28B8"/>
    </linearGradient>
    <linearGradient id="p" x1="-332.318%" x2="604.012%" y1="-272.716%" y2="517.7%">
      <stop offset="0%" stop-color="#14A3EB"/>
      <stop offset="100%" stop-color="#FF28B8"/>
    </linearGradient>
    <linearGradient id="q" x1="-8.321%" x2="135.68%" y1="-278.786%" y2="497.536%">
      <stop offset="0%" stop-color="#14A3EB"/>
      <stop offset="100%" stop-color="#FF28B8"/>
    </linearGradient>
    <linearGradient id="r" x1="-56.255%" x2="174.618%" y1="-306.811%" y2="499.499%">
      <stop offset="0%" stop-color="#14A3EB"/>
      <stop offset="100%" stop-color="#FF28B8"/>
    </linearGradient>
    <linearGradient id="s" x1="-18.311%" x2="129.627%" y1="-313.868%" y2="474.154%">
      <stop offset="0%" stop-color="#14A3EB"/>
      <stop offset="100%" stop-color="#FF28B8"/>
    </linearGradient>
    <linearGradient id="t" x1="-19.615%" x2="130.779%" y1="-324.376%" y2="449.692%">
      <stop offset="0%" stop-color="#14A3EB"/>
      <stop offset="100%" stop-color="#FF28B8"/>
    </linearGradient>
    <linearGradient id="u" x1="-69.932%" x2="161.004%" y1="-354.489%" y2="451.821%">
      <stop offset="0%" stop-color="#14A3EB"/>
      <stop offset="100%" stop-color="#FF28B8"/>
    </linearGradient>
    <linearGradient id="v" x1="-3.371%" x2="103.371%" y1="50.001%" y2="50.001%">
      <stop offset="0%" stop-color="#15A3EC"/>
      <stop offset="70.058%" stop-color="#B94DC8"/>
      <stop offset="100%" stop-color="#FF28B9"/>
    </linearGradient>
    <linearGradient id="w" x1="-1.948%" x2="101.947%" y1="49.999%" y2="49.999%">
      <stop offset="0%" stop-color="#15A3EC"/>
      <stop offset="70.058%" stop-color="#B94DC8"/>
      <stop offset="100%" stop-color="#FF28B9"/>
    </linearGradient>
    <linearGradient id="x" x1="-1.163%" x2="101.163%" y1="50%" y2="50%">
      <stop offset="0%" stop-color="#15A3EC"/>
      <stop offset="70.058%" stop-color="#B94DC8"/>
      <stop offset="100%" stop-color="#FF28B9"/>
    </linearGradient>
    <linearGradient id="y" x1="-.753%" x2="100.753%" y1="50%" y2="50%">
      <stop offset="0%" stop-color="#15A3EC"/>
      <stop offset="70.058%" stop-color="#B94DC8"/>
      <stop offset="100%" stop-color="#FF28B9"/>
    </linearGradient>
    <linearGradient id="z" x1="-.662%" x2="100.66%" y1="50%" y2="50%">
      <stop offset="0%" stop-color="#15A3EC"/>
      <stop offset="70.058%" stop-color="#B94DC8"/>
      <stop offset="100%" stop-color="#FF28B9"/>
    </linearGradient>
    <linearGradient id="A" x1="-.634%" x2="100.634%" y1="50%" y2="50%">
      <stop offset="0%" stop-color="#15A3EC"/>
      <stop offset="70.058%" stop-color="#B94DC8"/>
      <stop offset="100%" stop-color="#FF28B9"/>
    </linearGradient>
    <linearGradient id="B" x1="-.63%" x2="100.63%" y1="50%" y2="50%">
      <stop offset="0%" stop-color="#15A3EC"/>
      <stop offset="70.058%" stop-color="#B94DC8"/>
      <stop offset="100%" stop-color="#FF28B9"/>
    </linearGradient>
    <linearGradient id="C" x1="-.683%" x2="100.683%" y1="50%" y2="50%">
      <stop offset="0%" stop-color="#15A3EC"/>
      <stop offset="70.058%" stop-color="#B94DC8"/>
      <stop offset="100%" stop-color="#FF28B9"/>
    </linearGradient>
    <linearGradient id="D" x1="-1.223%" x2="101.223%" y1="50%" y2="50%">
      <stop offset="0%" stop-color="#15A3EC"/>
      <stop offset="70.058%" stop-color="#B94DC8"/>
      <stop offset="100%" stop-color="#FF28B9"/>
    </linearGradient>
    <linearGradient id="E" x1="-.64%" x2="100.641%" y1="50%" y2="50%">
      <stop offset="0%" stop-color="#15A3EC"/>
      <stop offset="70.058%" stop-color="#B94DC8"/>
      <stop offset="100%" stop-color="#FF28B9"/>
    </linearGradient>
    <linearGradient id="F" x1="-.959%" x2="100.959%" y1="50%" y2="50%">
      <stop offset="0%" stop-color="#15A3EC"/>
      <stop offset="70.058%" stop-color="#B94DC8"/>
      <stop offset="100%" stop-color="#FF28B9"/>
    </linearGradient>
    <linearGradient id="G" x1="-.639%" x2="100.639%" y1="50%" y2="50%">
      <stop offset="0%" stop-color="#15A3EC"/>
      <stop offset="70.058%" stop-color="#B94DC8"/>
      <stop offset="100%" stop-color="#FF28B9"/>
    </linearGradient>
    <linearGradient id="H" x1="-.939%" x2="100.939%" y1="50%" y2="50%">
      <stop offset="0%" stop-color="#15A3EC"/>
      <stop offset="70.058%" stop-color="#B94DC8"/>
      <stop offset="100%" stop-color="#FF28B9"/>
    </linearGradient>
    <linearGradient id="I" x1="-.788%" x2="100.788%" y1="50%" y2="50%">
      <stop offset="0%" stop-color="#15A3EC"/>
      <stop offset="70.058%" stop-color="#B94DC8"/>
      <stop offset="100%" stop-color="#FF28B9"/>
    </linearGradient>
    <linearGradient id="J" x1="-.698%" x2="100.698%" y1="50%" y2="50%">
      <stop offset="0%" stop-color="#15A3EC"/>
      <stop offset="70.058%" stop-color="#B94DC8"/>
      <stop offset="100%" stop-color="#FF28B9"/>
    </linearGradient>
    <linearGradient id="K" x1="-.828%" x2="100.828%" y1="50%" y2="50%">
      <stop offset="0%" stop-color="#15A3EC"/>
      <stop offset="70.058%" stop-color="#B94DC8"/>
      <stop offset="100%" stop-color="#FF28B9"/>
    </linearGradient>
    <linearGradient id="L" x1="-.782%" x2="100.782%" y1="50%" y2="50%">
      <stop offset="0%" stop-color="#15A3EC"/>
      <stop offset="70.058%" stop-color="#B94DC8"/>
      <stop offset="100%" stop-color="#FF28B9"/>
    </linearGradient>
    <linearGradient id="M" x1="-.907%" x2="100.907%" y1="50%" y2="50%">
      <stop offset="0%" stop-color="#15A3EC"/>
      <stop offset="70.058%" stop-color="#B94DC8"/>
      <stop offset="100%" stop-color="#FF28B9"/>
    </linearGradient>
    <linearGradient id="N" x1="-1.118%" x2="101.118%" y1="50%" y2="50%">
      <stop offset="0%" stop-color="#15A3EC"/>
      <stop offset="70.058%" stop-color="#B94DC8"/>
      <stop offset="100%" stop-color="#FF28B9"/>
    </linearGradient>
    <linearGradient id="O" x1="-1.137%" x2="101.138%" y1="50%" y2="50%">
      <stop offset="0%" stop-color="#15A3EC"/>
      <stop offset="70.058%" stop-color="#B94DC8"/>
      <stop offset="100%" stop-color="#FF28B9"/>
    </linearGradient>
    <linearGradient id="P" x1="-.902%" x2="100.902%" y1="50%" y2="50%">
      <stop offset="0%" stop-color="#15A3EC"/>
      <stop offset="70.058%" stop-color="#B94DC8"/>
      <stop offset="100%" stop-color="#FF28B9"/>
    </linearGradient>
    <linearGradient id="Q" x1="-1.983%" x2="101.983%" y1="50%" y2="50%">
      <stop offset="0%" stop-color="#15A3EC"/>
      <stop offset="70.058%" stop-color="#B94DC8"/>
      <stop offset="100%" stop-color="#FF28B9"/>
    </linearGradient>
    <linearGradient id="R" x1="-2.533%" x2="102.532%" y1="50%" y2="50%">
      <stop offset="0%" stop-color="#15A3EC"/>
      <stop offset="70.058%" stop-color="#B94DC8"/>
      <stop offset="100%" stop-color="#FF28B9"/>
    </linearGradient>
    <linearGradient id="S" x1="-4.446%" x2="104.446%" y1="50.002%" y2="50.002%">
      <stop offset="0%" stop-color="#15A3EC"/>
      <stop offset="70.058%" stop-color="#B94DC8"/>
      <stop offset="100%" stop-color="#FF28B9"/>
    </linearGradient>
    <linearGradient id="T" x1="-3.471%" x2="103.471%" y1="50%" y2="50%">
      <stop offset="0%" stop-color="#15A3EC"/>
      <stop offset="70.058%" stop-color="#B94DC8"/>
      <stop offset="100%" stop-color="#FF28B9"/>
    </linearGradient>
  </defs>
  <g fill="none" fill-rule="evenodd">
    <path fill="url(#a)" d="M136.83155,11.1184259 L132.59505,21.6637963 C132.501625,21.9100926 132.462775,22.0425 132.462775,22.1749074 C132.462775,22.4786111 132.6709,22.6860185 133.2,22.6860185 C133.8438,22.6860185 133.994575,22.3637963 134.185125,21.8906481 L135.470875,18.5397222 L137.9212,12.6137963 L139.99135,18.5397222 L141.257675,21.8906481 C141.4658,22.4397222 141.673,22.6860185 142.2613,22.6860185 C142.789475,22.6860185 143.035525,22.4786111 143.035525,22.155463 C143.035525,22.0230556 142.9791,21.8341667 142.90325,21.6452778 L138.83695,11.0999074 C138.6094,10.5313889 138.421625,10.1536111 137.8546,10.1536111 C137.2663,10.1536111 137.0591,10.5499074 136.83155,11.1184259 M60.253575,11.1184259 L56.017075,21.6637963 C55.92365,21.9100926 55.8848,22.0425 55.8848,22.1749074 C55.8848,22.4786111 56.092925,22.6860185 56.62295,22.6860185 C57.2649,22.6860185 57.417525,22.3637963 57.604375,21.8906481 L58.89105,18.5397222 L61.3423,12.6137963 L63.411525,18.5397222 L64.680625,21.8906481 C64.887825,22.4397222 65.09595,22.6860185 65.68055,22.6860185 C66.212425,22.6860185 66.45755,22.4786111 66.45755,22.155463 C66.45755,22.0230556 66.4002,21.8341667 66.323425,21.6452778 L62.258975,11.0999074 C62.031425,10.5313889 61.8418,10.1536111 61.274775,10.1536111 C60.68925,10.1536111 60.481125,10.5499074 60.253575,11.1184259"/>
    <path fill="url(#b)" d="M70.4887,10.3619444 C69.675625,10.5499074 69.675625,10.9100926 69.675625,11.4212037 L69.675625,21.7776852 C69.675625,22.0425 69.675625,22.2313889 69.7894,22.4017593 C69.90225,22.5721296 70.149225,22.6860185 70.4887,22.6860185 C70.828175,22.6860185 71.07515,22.5721296 71.187075,22.4017593 C71.30085,22.2313889 71.30085,22.0425 71.30085,21.7776852 L71.30085,17.404537 C71.30085,17.404537 71.508975,17.4415741 72.002,17.4415741 C72.60695,17.4415741 72.985275,17.3850926 72.985275,17.3850926 C72.985275,17.3850926 73.286825,17.9341667 73.873275,18.7665741 L76.0868,21.9471296 C76.38835,22.3832407 76.596475,22.6860185 77.277275,22.6860185 C78.148625,22.6860185 78.224475,22.1749074 77.92015,21.7582407 L74.517075,17.0443519 C76.0868,16.4378704 76.918375,15.2462037 76.918375,13.6739815 C76.918375,12.329537 76.3125,11.3267593 75.216375,10.7591667 C74.346875,10.304537 73.2489,10.1906481 72.304475,10.1906481 C71.529325,10.1906481 70.885525,10.2665741 70.4887,10.3619444 M71.30085,16.0600926 L71.30085,11.6675 C71.30085,11.6675 71.792025,11.5915741 72.3979,11.5915741 C73.873275,11.5915741 75.216375,12.0647222 75.216375,13.7693519 C75.216375,15.3786111 74.043475,16.0971296 72.0205,16.0971296 C71.5469,16.0971296 71.30085,16.0600926 71.30085,16.0600926"/>
    <path fill="url(#c)" d="M80.213225,10.3230556 C79.96625,10.3230556 79.77755,10.3425 79.608275,10.455463 C79.456575,10.5693519 79.360375,10.7591667 79.360375,11.0619444 C79.360375,11.3462037 79.456575,11.5350926 79.608275,11.6480556 C79.77755,11.7619444 79.96625,11.780463 80.213225,11.780463 L83.522875,11.780463 L83.522875,21.7776852 C83.522875,22.0425 83.522875,22.2313889 83.635725,22.4017593 C83.748575,22.5721296 84.01405,22.6860185 84.353525,22.6860185 C84.67635,22.6860185 84.941825,22.5721296 85.054675,22.4017593 C85.167525,22.2313889 85.167525,22.0425 85.167525,21.7776852 L85.167525,11.780463 L88.477175,11.780463 C88.723225,11.780463 88.91285,11.7619444 89.082125,11.6480556 C89.233825,11.5350926 89.328175,11.3462037 89.328175,11.0425 C89.328175,10.7591667 89.233825,10.5693519 89.082125,10.455463 C88.91285,10.3425 88.723225,10.3230556 88.477175,10.3230556 L80.213225,10.3230556 Z"/>
    <path fill="url(#d)" d="M92.4519,10.4749074 C92.3372,10.6452778 92.3372,10.8350926 92.3372,11.0999074 L92.3372,21.7776852 C92.3372,22.0425 92.3372,22.2313889 92.4519,22.4017593 C92.565675,22.5721296 92.83115,22.6860185 93.170625,22.6860185 C93.492525,22.6860185 93.758,22.5721296 93.869,22.4017593 C93.9837,22.2313889 93.9837,22.0425 93.9837,21.7776852 L93.9837,11.0999074 C93.9837,10.8350926 93.9837,10.6452778 93.869,10.4749074 C93.758,10.304537 93.492525,10.1906481 93.15305,10.1906481 C92.83115,10.1906481 92.565675,10.304537 92.4519,10.4749074"/>
    <path fill="url(#e)" d="M99.338525,10.3230556 C98.7715,10.3230556 98.54395,10.5499074 98.54395,11.0619444 L98.54395,21.7776852 C98.54395,22.0425 98.54395,22.2313889 98.6568,22.4017593 C98.7715,22.5721296 99.035125,22.6860185 99.37645,22.6860185 C99.695575,22.6860185 99.961975,22.5721296 100.07575,22.4017593 C100.189525,22.2313889 100.189525,22.0425 100.189525,21.7776852 L100.189525,16.9878704 L103.575025,16.9878704 C103.821075,16.9878704 104.007925,16.9684259 104.179975,16.855463 C104.33075,16.7406481 104.426025,16.5526852 104.426025,16.2489815 C104.426025,15.9647222 104.33075,15.7758333 104.179975,15.6628704 C104.007925,15.5480556 103.821075,15.529537 103.575025,15.529537 L100.189525,15.529537 L100.189525,11.780463 L104.16055,11.780463 C104.4066,11.780463 104.596225,11.7619444 104.7655,11.6480556 C104.9172,11.5350926 105.01155,11.3462037 105.01155,11.0425 C105.01155,10.7591667 104.9172,10.5693519 104.7655,10.455463 C104.596225,10.3425 104.4066,10.3230556 104.16055,10.3230556 L99.338525,10.3230556 Z"/>
    <path fill="url(#f)" d="M108.588525,10.4749074 C108.47475,10.6452778 108.47475,10.8350926 108.47475,11.0999074 L108.47475,21.7776852 C108.47475,22.0425 108.47475,22.2313889 108.588525,22.4017593 C108.7023,22.5721296 108.967775,22.6860185 109.30725,22.6860185 C109.62915,22.6860185 109.894625,22.5721296 110.00655,22.4017593 C110.120325,22.2313889 110.120325,22.0425 110.120325,21.7776852 L110.120325,11.0999074 C110.120325,10.8350926 110.120325,10.6452778 110.00655,10.4749074 C109.894625,10.304537 109.62915,10.1906481 109.289675,10.1906481 C108.967775,10.1906481 108.7023,10.304537 108.588525,10.4749074"/>
    <path fill="url(#g)" d="M113.753725,16.3443519 C113.753725,20.7165741 116.759975,22.7989815 119.9577,22.7989815 C121.148175,22.7989815 122.378425,22.5156481 123.32285,21.9286111 C123.738175,21.6637963 124.004575,21.4175 124.004575,21.0767593 C124.004575,20.754537 123.758525,20.3008333 123.3617,20.3008333 C123.001875,20.3008333 122.700325,20.6415741 121.923325,20.9637963 C121.3378,21.2091667 120.657,21.3415741 119.995625,21.3415741 C117.7451,21.3415741 115.4548,19.8082407 115.4548,16.2878704 C115.4548,12.8221296 117.66925,11.4971296 119.8615,11.4971296 C120.6385,11.4971296 121.28045,11.6675 121.8854,11.9323148 C122.75675,12.3119444 123.022225,12.5952778 123.32285,12.5952778 C123.738175,12.5952778 124.004575,12.0841667 124.004575,11.7619444 C124.004575,11.4406481 123.738175,11.1749074 123.26735,10.8915741 C122.396925,10.3619444 121.224025,10.0387963 119.93735,10.0387963 C116.7239,10.0387963 113.753725,12.0082407 113.753725,16.3443519"/>
    <path fill="url(#h)" d="M127.715675,10.4749074 C127.600975,10.6452778 127.600975,10.8350926 127.600975,11.0999074 L127.600975,21.7776852 C127.600975,22.0425 127.600975,22.2313889 127.715675,22.4017593 C127.82945,22.5721296 128.093075,22.6860185 128.4344,22.6860185 C128.75445,22.6860185 129.019925,22.5721296 129.1337,22.4017593 C129.247475,22.2313889 129.247475,22.0425 129.247475,21.7776852 L129.247475,11.0999074 C129.247475,10.8350926 129.247475,10.6452778 129.1337,10.4749074 C129.019925,10.304537 128.75445,10.1906481 128.414975,10.1906481 C128.093075,10.1906481 127.82945,10.304537 127.715675,10.4749074"/>
    <path fill="url(#i)" d="M146.36645,10.4749074 C146.2536,10.6452778 146.2536,10.8350926 146.2536,11.0999074 L146.2536,21.7776852 C146.2536,22.3073148 146.443225,22.5721296 147.048175,22.5721296 L152.07925,22.5721296 C152.3253,22.5721296 152.514925,22.5536111 152.6842,22.4397222 C152.836825,22.3267593 152.93025,22.1378704 152.93025,21.8341667 C152.93025,21.5499074 152.836825,21.3610185 152.6842,21.2471296 C152.514925,21.1341667 152.3253,21.1147222 152.07925,21.1147222 L147.899175,21.1147222 L147.899175,11.0999074 C147.899175,10.8350926 147.899175,10.6452778 147.7854,10.4749074 C147.67255,10.304537 147.407075,10.1906481 147.0676,10.1906481 C146.746625,10.1906481 146.48115,10.304537 146.36645,10.4749074"/>
    <path fill="url(#j)" d="M57.34075,26.9823148 C57.2279,27.1526852 57.2279,27.3425 57.2279,27.6073148 L57.2279,38.2850926 C57.2279,38.5499074 57.2279,38.7387963 57.34075,38.9091667 C57.454525,39.079537 57.719075,39.1934259 58.0604,39.1934259 C58.379525,39.1934259 58.645,39.079537 58.7597,38.9091667 C58.873475,38.7387963 58.873475,38.5499074 58.873475,38.2850926 L58.873475,27.6073148 C58.873475,27.3425 58.873475,27.1526852 58.7597,26.9823148 C58.645,26.8119444 58.379525,26.6980556 58.04005,26.6980556 C57.719075,26.6980556 57.454525,26.8119444 57.34075,26.9823148"/>
    <path fill="url(#k)" d="M63.431875,27.379537 L63.431875,38.2850926 C63.431875,38.5499074 63.431875,38.7387963 63.54565,38.9091667 C63.677,39.0989815 63.905475,39.1934259 64.22645,39.1934259 C64.454,39.1934259 64.737975,39.1369444 64.887825,38.9091667 C65.0016,38.7387963 65.0016,38.5499074 65.0016,38.2850926 L65.0016,29.5758333 L71.962225,38.3980556 C72.3979,38.9471296 72.64395,39.2128704 73.135125,39.2128704 C73.6078,39.2128704 73.854775,38.9665741 73.854775,38.530463 L73.854775,27.6073148 C73.854775,27.3425 73.854775,27.1526852 73.740075,26.9823148 C73.6078,26.7934259 73.381175,26.6980556 73.059275,26.6980556 C72.8308,26.6980556 72.54775,26.754537 72.3979,26.9823148 C72.284125,27.1526852 72.284125,27.3425 72.284125,27.6073148 L72.284125,36.2397222 L65.398425,27.5128704 C64.9831,26.9823148 64.737975,26.679537 64.188525,26.679537 C63.69735,26.679537 63.431875,26.9258333 63.431875,27.379537"/>
    <path fill="url(#l)" d="M77.71665,26.830463 C77.46875,26.830463 77.280975,26.8499074 77.110775,26.9628704 C76.96,27.0767593 76.8638,27.2665741 76.8638,27.5693519 C76.8638,27.8536111 76.96,28.0425 77.110775,28.155463 C77.280975,28.2693519 77.46875,28.2878704 77.71665,28.2878704 L81.0263,28.2878704 L81.0263,38.2850926 C81.0263,38.5499074 81.0263,38.7387963 81.13915,38.9091667 C81.252,39.079537 81.517475,39.1934259 81.85695,39.1934259 C82.179775,39.1934259 82.44525,39.079537 82.5581,38.9091667 C82.67095,38.7387963 82.67095,38.5499074 82.67095,38.2850926 L82.67095,28.2878704 L85.979675,28.2878704 C86.225725,28.2878704 86.41535,28.2693519 86.584625,28.155463 C86.73725,28.0425 86.8316,27.8536111 86.8316,27.5499074 C86.8316,27.2665741 86.73725,27.0767593 86.584625,26.9628704 C86.41535,26.8499074 86.225725,26.830463 85.979675,26.830463 L77.71665,26.830463 Z"/>
    <path fill="url(#m)" d="M90.636125,26.830463 C90.0691,26.830463 89.840625,27.0573148 89.840625,27.6258333 L89.840625,38.2850926 C89.840625,38.8341667 90.031175,39.079537 90.636125,39.079537 L95.6672,39.079537 C95.91325,39.079537 96.102875,39.0610185 96.273075,38.9471296 C96.424775,38.8341667 96.5182,38.6452778 96.5182,38.3415741 C96.5182,38.0573148 96.424775,37.8684259 96.273075,37.754537 C96.102875,37.6415741 95.91325,37.6221296 95.6672,37.6221296 L91.468625,37.6221296 L91.468625,33.2110185 L94.43695,33.2110185 C94.683,33.2110185 94.872625,33.1925 95.042825,33.0786111 C95.1936,32.9647222 95.28795,32.7758333 95.28795,32.4721296 C95.28795,32.1887963 95.1936,31.9989815 95.042825,31.8860185 C94.872625,31.7721296 94.683,31.7536111 94.43695,31.7536111 L91.468625,31.7536111 L91.468625,28.2878704 L95.11775,28.2878704 C95.3638,28.2878704 95.553425,28.2693519 95.723625,28.155463 C95.8744,28.0425 95.96875,27.8536111 95.96875,27.5499074 C95.96875,27.2665741 95.8744,27.0767593 95.723625,26.9628704 C95.553425,26.8499074 95.3638,26.830463 95.11775,26.830463 L90.636125,26.830463 Z"/>
    <path fill="url(#n)" d="M100.3033,26.9823148 C100.189525,27.1526852 100.189525,27.3425 100.189525,27.6073148 L100.189525,38.2850926 C100.189525,38.8147222 100.37915,39.079537 100.9841,39.079537 L106.01425,39.079537 C106.259375,39.079537 106.449,39.0610185 106.6192,38.9471296 C106.7709,38.8341667 106.864325,38.6452778 106.864325,38.3415741 C106.864325,38.0573148 106.7709,37.8684259 106.6192,37.754537 C106.449,37.6415741 106.259375,37.6221296 106.01425,37.6221296 L101.8351,37.6221296 L101.8351,27.6073148 C101.8351,27.3425 101.8351,27.1526852 101.721325,26.9823148 C101.60755,26.8119444 101.342075,26.6980556 101.0026,26.6980556 C100.6807,26.6980556 100.417075,26.8119444 100.3033,26.9823148"/>
    <path fill="url(#o)" d="M110.15825,26.9823148 C110.044475,27.1526852 110.044475,27.3425 110.044475,27.6073148 L110.044475,38.2850926 C110.044475,38.8147222 110.235025,39.079537 110.839975,39.079537 L115.87105,39.079537 C116.1171,39.079537 116.3058,39.0610185 116.476,38.9471296 C116.628625,38.8341667 116.72205,38.6452778 116.72205,38.3415741 C116.72205,38.0573148 116.628625,37.8684259 116.476,37.754537 C116.3058,37.6415741 116.1171,37.6221296 115.87105,37.6221296 L111.690975,37.6221296 L111.690975,27.6073148 C111.690975,27.3425 111.690975,27.1526852 111.576275,26.9823148 C111.46435,26.8119444 111.198875,26.6980556 110.8594,26.6980556 C110.5375,26.6980556 110.272025,26.8119444 110.15825,26.9823148"/>
    <path fill="url(#p)" d="M120.015975,26.9823148 C119.901275,27.1526852 119.901275,27.3425 119.901275,27.6073148 L119.901275,38.2850926 C119.901275,38.5499074 119.901275,38.7387963 120.015975,38.9091667 C120.128825,39.079537 120.39245,39.1934259 120.733775,39.1934259 C121.05475,39.1934259 121.320225,39.079537 121.433075,38.9091667 C121.547775,38.7387963 121.547775,38.5499074 121.547775,38.2850926 L121.547775,27.6073148 C121.547775,27.3425 121.547775,27.1526852 121.433075,26.9823148 C121.320225,26.8119444 121.05475,26.6980556 120.715275,26.6980556 C120.39245,26.6980556 120.128825,26.8119444 120.015975,26.9823148"/>
    <path fill="url(#q)" d="M125.1784,32.8887963 C125.1784,37.129537 128.093075,39.2693519 131.7052,39.2693519 C132.838325,39.2693519 133.861375,39.0610185 134.7688,38.7202778 C135.733575,38.3610185 135.88435,38.0767593 135.88435,37.4712037 L135.88435,33.4665741 C135.88435,33.2017593 135.88435,33.0128704 135.7715,32.8415741 C135.657725,32.6721296 135.393175,32.5573148 135.052775,32.5573148 C134.730875,32.5573148 134.46725,32.6721296 134.35255,32.8415741 C134.238775,33.0128704 134.238775,33.2017593 134.238775,33.4665741 L134.238775,37.2813889 C134.238775,37.2813889 133.19815,37.8119444 131.7052,37.8119444 C129.075425,37.8119444 126.88225,36.1637963 126.88225,32.8137963 C126.88225,29.2730556 129.3409,28.004537 131.572,28.004537 C132.479425,28.004537 133.274,28.2137963 133.8031,28.4212037 C134.52275,28.704537 134.8243,29.0073148 135.1462,29.0073148 C135.543025,29.0073148 135.809425,28.5350926 135.809425,28.1749074 C135.809425,27.8536111 135.581875,27.6258333 135.034275,27.3230556 C134.04915,26.7934259 132.8966,26.5471296 131.7052,26.5471296 C128.546325,26.5471296 125.1784,28.3267593 125.1784,32.8887963"/>
    <path fill="url(#r)" d="M140.5408,26.830463 C139.97285,26.830463 139.746225,27.0573148 139.746225,27.6258333 L139.746225,38.2850926 C139.746225,38.8341667 139.93585,39.079537 140.5408,39.079537 L145.5728,39.079537 C145.817925,39.079537 146.00755,39.0610185 146.17775,38.9471296 C146.32945,38.8341667 146.4238,38.6452778 146.4238,38.3415741 C146.4238,38.0573148 146.32945,37.8684259 146.17775,37.754537 C146.00755,37.6415741 145.817925,37.6221296 145.5728,37.6221296 L141.3733,37.6221296 L141.3733,33.2110185 L144.34255,33.2110185 C144.587675,33.2110185 144.7773,33.1925 144.9475,33.0786111 C145.0992,32.9647222 145.192625,32.7758333 145.192625,32.4721296 C145.192625,32.1887963 145.0992,31.9989815 144.9475,31.8860185 C144.7773,31.7721296 144.587675,31.7536111 144.34255,31.7536111 L141.3733,31.7536111 L141.3733,28.2878704 L145.02335,28.2878704 C145.268475,28.2878704 145.459025,28.2693519 145.6283,28.155463 C145.78,28.0425 145.87435,27.8536111 145.87435,27.5499074 C145.87435,27.2665741 145.78,27.0767593 145.6283,26.9628704 C145.459025,26.8499074 145.268475,26.830463 145.02335,26.830463 L140.5408,26.830463 Z"/>
    <path fill="url(#s)" d="M150.0942,27.379537 L150.0942,38.2850926 C150.0942,38.5499074 150.0942,38.7387963 150.207975,38.9091667 C150.34025,39.0989815 150.5678,39.1934259 150.888775,39.1934259 C151.114475,39.1934259 151.39845,39.1369444 151.551075,38.9091667 C151.663925,38.7387963 151.663925,38.5499074 151.663925,38.2850926 L151.663925,29.5758333 L158.623625,38.3980556 C159.0593,38.9471296 159.304425,39.2128704 159.7956,39.2128704 C160.2692,39.2128704 160.51525,38.9665741 160.51525,38.530463 L160.51525,27.6073148 C160.51525,27.3425 160.51525,27.1526852 160.401475,26.9823148 C160.2692,26.7934259 160.04165,26.6980556 159.71975,26.6980556 C159.49405,26.6980556 159.211,26.754537 159.0593,26.9823148 C158.9446,27.1526852 158.9446,27.3425 158.9446,27.6073148 L158.9446,36.2397222 L152.061675,27.5128704 C151.643575,26.9823148 151.39845,26.679537 150.851775,26.679537 C150.357825,26.679537 150.0942,26.9258333 150.0942,27.379537"/>
    <path fill="url(#t)" d="M164.149575,32.8517593 C164.149575,37.2239815 167.157675,39.3063889 170.35355,39.3063889 C171.5468,39.3063889 172.774275,39.0230556 173.721475,38.4360185 C174.137725,38.1712037 174.400425,37.9249074 174.400425,37.5841667 C174.400425,37.2628704 174.154375,36.8082407 173.7594,36.8082407 C173.399575,36.8082407 173.0971,37.1489815 172.32195,37.4712037 C171.73365,37.7165741 171.0547,37.8489815 170.3924,37.8489815 C168.14095,37.8489815 165.853425,36.3156481 165.853425,32.7952778 C165.853425,29.329537 168.0651,28.004537 170.2592,28.004537 C171.03435,28.004537 171.67815,28.1749074 172.2831,28.4397222 C173.15445,28.8193519 173.418075,29.1026852 173.721475,29.1026852 C174.137725,29.1026852 174.400425,28.5915741 174.400425,28.2693519 C174.400425,27.9480556 174.137725,27.6823148 173.6632,27.3989815 C172.794625,26.8693519 171.62265,26.5471296 170.335975,26.5471296 C167.120675,26.5471296 164.149575,28.5156481 164.149575,32.8517593"/>
    <path fill="url(#u)" d="M178.792325,26.830463 C178.2253,26.830463 177.99775,27.0573148 177.99775,27.6258333 L177.99775,38.2850926 C177.99775,38.8341667 178.187375,39.079537 178.792325,39.079537 L183.822475,39.079537 C184.068525,39.079537 184.25815,39.0610185 184.42835,38.9471296 C184.579125,38.8341667 184.673475,38.6452778 184.673475,38.3415741 C184.673475,38.0573148 184.579125,37.8684259 184.42835,37.754537 C184.25815,37.6415741 184.068525,37.6221296 183.822475,37.6221296 L179.6239,37.6221296 L179.6239,33.2110185 L182.594075,33.2110185 C182.8392,33.2110185 183.028825,33.1925 183.199025,33.0786111 C183.350725,32.9647222 183.445075,32.7758333 183.445075,32.4721296 C183.445075,32.1887963 183.350725,31.9989815 183.199025,31.8860185 C183.028825,31.7721296 182.8392,31.7536111 182.594075,31.7536111 L179.6239,31.7536111 L179.6239,28.2878704 L183.274875,28.2878704 C183.52,28.2878704 183.7087,28.2693519 183.879825,28.155463 C184.029675,28.0425 184.125875,27.8536111 184.125875,27.5499074 C184.125875,27.2665741 184.029675,27.0767593 183.879825,26.9628704 C183.7087,26.8499074 183.52,26.830463 183.274875,26.830463 L178.792325,26.830463 Z"/>
    <path stroke="url(#v)" stroke-dasharray=".1 1" stroke-linecap="round" stroke-width=".8" d="M17.275538,0.223214286 L17.0363022,0.424107143 C16.8831193,0.550892857 16.6611047,0.729017857 16.3826422,0.927205357 C16.2458431,1.03 16.0887224,1.12809821 15.9265769,1.2386875 C15.7597631,1.3415625 15.5843876,1.45183929 15.3961742,1.55391071 C15.2107136,1.66135714 15.0123705,1.7595 14.8119427,1.86200893 C14.6086551,1.95813393 14.4022582,2.05700893 14.1911573,2.14483036 C13.9825865,2.23913393 13.7680913,2.31809821 13.5592444,2.40263393 C13.3489898,2.48299107 13.139938,2.55682143 12.9355189,2.62072321 C12.5619094,2.73260351 12.1825235,2.82410677 11.7990307,2.89483036 C11.6310676,2.92716071 11.4752298,2.94897321 11.3379942,2.97042857 C11.2004735,2.99185714 11.080468,3.00392857 10.9810158,3.01351786 C10.7829133,3.03505357 10.6685295,3.04199107 10.6685295,3.04199107"/>
    <path stroke="url(#w)" stroke-dasharray=".1 1" stroke-linecap="round" stroke-width=".8" d="M20.5296725,0.461116071 L20.028652,0.925142857 L19.5058576,1.36542857 C19.3241122,1.50273214 19.1461175,1.64595536 18.9606213,1.77882143 C18.7712942,1.90590179 18.5885687,2.044 18.3932013,2.16242857 C18.197914,2.28064286 18.0077227,2.408625 17.8043104,2.51316071 C17.6040073,2.6234375 17.4037665,2.73416964 17.1961313,2.83001786 L16.8874045,2.97973214 L16.5724949,3.11549107 C16.363746,3.20942857 16.150204,3.29075893 15.9363858,3.37174107 C15.724002,3.45700893 15.5066915,3.52709821 15.2906816,3.60170536 C15.0753133,3.6789375 14.8561942,3.742375 14.6384293,3.81140179 C14.4209584,3.88205357 14.2004138,3.93966071 13.9810631,4.00291964 C13.7619885,4.06774107 13.5405085,4.12115179 13.3194295,4.17691964 C13.0988582,4.23516071 12.8766476,4.28528571 12.6536353,4.33128571 C12.4307476,4.37821429 12.2089647,4.42998214 11.9844556,4.4675 L11.3126567,4.58803571 C11.0883793,4.62553571 10.865064,4.66809821 10.6397976,4.70032143 L10.647406,4.69853571 C10.1311955,4.81703571 9.61439691,4.93335714 9.092538,5.03129464"/>
    <path stroke="url(#x)" stroke-dasharray=".1 1" stroke-linecap="round" stroke-width=".8" d="M25.743228,0.471339286 L25.1362516,1.07522321 C24.9325542,1.27522321 24.7098804,1.45489286 24.4973896,1.645875 C24.3914059,1.74175803 24.2804843,1.83201259 24.1650805,1.91626786 L23.8243613,2.17671429 L23.6536453,2.30671429 L23.474724,2.42502679 L23.1166231,2.66175 C22.9982229,2.74220613 22.8757429,2.81646042 22.7496755,2.88421429 L22.3759658,3.09619643 C22.1259678,3.23595536 21.8626775,3.34976786 21.6063273,3.47805357 C21.3439189,3.5924375 21.0773411,3.69769643 20.8118858,3.80532143 C20.5411296,3.89780357 20.2725829,3.99832143 19.9996707,4.084125 C19.7252707,4.16408929 19.453196,4.25483929 19.1764707,4.32585714 C18.8999415,4.39733929 18.6247753,4.47666964 18.3466424,4.54014286 C17.7919891,4.67616071 17.2350996,4.79958929 16.6790476,4.92317857 C16.1229867,5.04724107 15.5676653,5.17111607 15.0143573,5.30183929 C14.4606662,5.43092857 13.9105922,5.57207143 13.3603133,5.7115625 L13.3754587,5.70690179 L12.9643042,5.85588393 L12.5484545,5.99053571 C12.2701524,6.07615476 11.9906237,6.15680952 11.7098685,6.2325 C11.146814,6.3775625 10.5794207,6.50016071 10.0114484,6.61375 C9.44399273,6.73015179 8.87270618,6.82199107 8.30370927,6.92167857 L7.44971055,7.06819643 L6.596576,7.22128571"/>
    <path stroke="url(#y)" stroke-dasharray=".1 1" stroke-linecap="round" stroke-width=".8" d="M30.1655225,1.42019643 L29.4996482,2.11783929 C29.443414,2.17516071 29.3902445,2.235875 29.3314445,2.2905625 L29.1498773,2.4493125 L28.786618,2.76699107 C28.5450164,2.97972038 28.2899103,3.17653176 28.022904,3.3561875 C27.8901585,3.44700893 27.7660816,3.55135714 27.6262089,3.63123214 L27.2090675,3.87480357 C27.0683038,3.95284821 26.9344625,4.04444643 26.7879525,4.11133036 L26.3500707,4.31579464 C26.0589373,4.45401255 25.7599253,4.57490686 25.4545913,4.67784821 C25.1553171,4.79935714 24.841138,4.87311607 24.5327142,4.96614286 L24.3003651,5.03241071 L24.0649156,5.08554464 L23.5939098,5.19189286 C23.2797842,5.26247321 22.9617207,5.3099375 22.6456707,5.37009821 C22.3287476,5.42358929 22.010702,5.46777679 21.6931642,5.51679464 L19.7887124,5.786375 C19.4730633,5.83850893 19.1564609,5.88579464 18.8417384,5.9419375 C18.5284324,6.0044375 18.2136475,6.06033929 17.9016867,6.12834821 C17.5917751,6.20458036 17.2803311,6.27496429 16.9718716,6.35566071 L16.0559636,6.63083929 L16.0654251,6.6271875 C15.6662978,6.79799107 15.2635267,6.96130357 14.8514189,7.09659821 C14.4414493,7.23873214 14.0241296,7.35603571 13.6061596,7.46905357 C12.7682864,7.68750893 11.9207289,7.86069643 11.0747573,8.02351786 C10.2287233,8.18674107 9.38417709,8.34704464 8.55536436,8.5541875 C7.72922538,8.74630545 6.9317018,9.04586903 6.18307836,9.44525893 C5.8181034,9.65046753 5.48063418,9.9013349 5.17878327,10.1918304 C4.87361682,10.4784136 4.61157393,10.8078722 4.40085036,11.1699018 L4.31902927,11.3041964 L4.24847818,11.4452679 C4.20304182,11.53975 4.15061182,11.6320446 4.11059218,11.7284464 C4.02632247,11.922217 3.95225152,12.1202837 3.88868455,12.3218304 L3.69590073,12.9405804 C3.62341636,13.1468929 3.55168036,13.3534821 3.46604618,13.5544107 C3.12101284,14.3534759 2.69156522,15.1132025 2.18505255,15.8205893 C1.68910127,16.5308214 1.13994491,17.197375 0.600909273,17.8704107"/>
    <path stroke="url(#z)" stroke-dasharray=".1 1" stroke-linecap="round" stroke-width=".8" d="M33.9953536,3.04205357 C33.7689291,3.29894643 33.5472976,3.56057143 33.3000882,3.79830357 L33.1184496,3.98015179 L32.9269042,4.15158036 C32.7993349,4.26605357 32.6731198,4.38217857 32.5357149,4.48496429 C32.2689011,4.70058878 31.9897398,4.90039974 31.6996591,5.083375 C31.5516791,5.16991964 31.408216,5.26476786 31.2563249,5.34445536 C31.1034004,5.42205357 30.9538969,5.50695536 30.7979967,5.5784375 C30.6407156,5.6468125 30.4862944,5.7225 30.3265365,5.7849375 C30.1656027,5.84417857 30.0071813,5.91109821 29.844038,5.96404464 C29.5186067,6.07322321 29.1886526,6.1668244 28.8541756,6.24484821 C28.1848791,6.39505241 27.505931,6.49822014 26.8222882,6.55359821 C26.1397627,6.61384821 25.4555891,6.64133036 24.7726182,6.66560714 C24.0895938,6.68971429 23.4072555,6.7114375 22.7274918,6.75725893 C22.0485961,6.79837419 21.3728415,6.88102523 20.7040056,7.00475 C20.5372185,7.03569643 20.3725875,7.0765 20.2067982,7.11183036 C20.0421225,7.15172321 19.8794069,7.19900893 19.7156311,7.24209821 L19.2323218,7.3975625 L18.7587947,7.57960714 L18.7652182,7.57658929 C17.6151213,8.13917233 16.3966961,8.54896155 15.1407951,8.79558036 C13.8947607,9.06597321 12.6322267,9.231125 11.3978187,9.49532143 C10.7822926,9.61897206 10.1785705,9.79566114 9.59338036,10.0234196 C9.01560972,10.2467344 8.48472201,10.5765989 8.02821345,10.9959286 C7.58765721,11.4269254 7.24498959,11.9480394 7.023562,12.5237589 C6.96503818,12.6661696 6.924288,12.8133304 6.87323891,12.9576875 C6.82794509,13.1058482 6.79466964,13.2645982 6.754748,13.4175982 L6.64071164,13.8830893 C6.60364091,14.0410179 6.54732655,14.1932857 6.50146255,14.3486696 C6.06232099,15.5624297 5.42558743,16.6949019 4.61711855,17.7000982 C3.84058436,18.7152321 3.00100945,19.6692143 2.26883364,20.6994107 C1.90086507,21.2114365 1.56759642,21.7476322 1.27127382,22.3043839 C0.977598611,22.8618714 0.741643689,23.4480253 0.567099273,24.0536786 C0.394328421,24.6613992 0.285185317,25.2855012 0.241436364,25.9158839 C0.205872642,26.5494869 0.223422759,27.1849634 0.293902,27.815625"/>
    <path stroke="url(#A)" stroke-dasharray=".1 1" stroke-linecap="round" stroke-width=".8" d="M37.3522011,5.22798214 L37.3165024,5.26644643 L36.9494478,5.66188393 C36.8116509,5.79670536 36.6373713,5.95958929 36.4276958,6.14491964 C36.3180071,6.23191964 36.2002289,6.32540179 36.0743613,6.42536607 C35.9487431,6.52536607 35.8018589,6.61341071 35.6539591,6.71657143 C35.3186502,6.93194308 34.9672673,7.12107827 34.6029358,7.28229464 C34.1712867,7.46710678 33.724559,7.61432324 33.2677036,7.7223125 C32.1682724,7.96465079 31.0420386,8.06251187 29.9173955,8.01342857 C28.6830231,7.98723214 27.3527355,7.84939286 25.9459811,7.79945536 C25.2263573,7.76865157 24.505449,7.79064777 23.7890278,7.86526786 C23.0441739,7.94037041 22.3172067,8.14037214 21.6384891,8.45691964 L21.5077125,8.51845536 L21.4749627,8.533875 C21.4635145,8.53971429 21.472192,8.53451786 21.4654478,8.53833929 L21.4494115,8.54710714 L21.385266,8.58216071 L21.1278556,8.72265179 C20.9581731,8.82116071 20.775804,8.89574107 20.5992793,8.98383929 C20.4206431,9.06754464 20.2356636,9.13820536 20.053152,9.21635714 C19.8666936,9.284 19.6806362,9.3555625 19.4912556,9.41847321 C18.7242171,9.66577506 17.9409549,9.85934864 17.1471313,9.99779464 C16.3487965,10.1423036 15.5398244,10.2516696 14.7343356,10.3806607 C13.9287741,10.4918766 13.1351287,10.6771214 12.3634305,10.9340536 C11.6014708,11.1830995 10.9307294,11.6538201 10.4366525,12.28625 C10.2011469,12.6044544 10.0169758,12.9577571 9.89087273,13.3332411 C9.85433174,13.4248156 9.82450805,13.5189406 9.80163927,13.6148661 L9.72421036,13.8985982 L9.61276655,14.4933482 C9.47566293,15.3012695 9.21087065,16.0821082 8.82836564,16.8064464 C8.44861363,17.5016648 8.00939703,18.1625561 7.51565564,18.7816875 C7.03927764,19.3941875 6.54374509,19.9689107 6.07616927,20.5422054 C5.608442,21.1150536 5.16495636,21.6837857 4.775442,22.2645268 C4.39458966,22.825156 4.07166375,23.4231782 3.81165655,24.0493482 C3.57286446,24.6349721 3.40292844,25.246471 3.30528164,25.8714911 C3.14527301,26.9735213 3.17332026,28.0947906 3.38822527,29.1874018 C3.48593068,29.6500473 3.54009491,30.1208618 3.55000545,30.5936518 C3.55290268,30.9970572 3.50227123,31.3990583 3.39944182,31.7890893 C3.25477178,32.3352197 2.99027245,32.8420946 2.62524182,33.2727321 C2.53083306,33.3859928 2.42999334,33.4937099 2.32322364,33.5953482 L2.21405164,33.6995089"/>
    <path stroke="url(#B)" stroke-dasharray=".1 1" stroke-linecap="round" stroke-width=".8" d="M38.6927698,7.29799107 C37.6162487,8.48847321 33.4215636,10.0159107 28.0090415,8.82608036 C27.2646297,8.75633881 26.5145245,8.77736745 25.7751671,8.88870536 C25.3986502,8.95462799 25.0317443,9.06709346 24.6828502,9.22352679 L24.5516727,9.28085714 C24.5083656,9.30249107 24.4660296,9.32933036 24.4230878,9.35342857 L24.1696865,9.49976786 C23.9977411,9.60292857 23.8284684,9.71302679 23.6519347,9.81170536 C22.9309163,10.2063144 22.165686,10.5137083 21.3723211,10.7274286 C20.5616279,10.9398989 19.738064,11.0995659 18.9067925,11.2054286 C18.0718682,11.3212768 17.2276071,11.4075446 16.3950704,11.5543393 C15.562301,11.6637087 14.7606041,11.9424217 14.0391504,12.3733839 C13.6947255,12.6003678 13.399931,12.8951447 13.17267,13.2398125 C12.9547453,13.5912604 12.7910892,13.9737068 12.6872493,14.3741875 C12.5975963,14.7852501 12.5301101,15.2008556 12.4850842,15.6191964 C12.4246796,16.0469994 12.3239971,16.4681104 12.1843845,16.8768929 C11.8942649,17.6761558 11.4898794,18.428965 10.9838845,19.1117589 C10.4941785,19.7883036 9.95674655,20.4090804 9.43160909,21.0147768 C8.90654291,21.6207679 8.39469782,22.2164286 7.94170618,22.8326339 C7.49582772,23.4285116 7.11457297,24.0703071 6.80439836,24.7471518 C6.24869212,25.9967637 6.02590022,27.3694627 6.15778545,28.7311607 C6.17480182,29.049125 6.22776636,29.3541161 6.26978164,29.6542857 C6.31506655,29.9532589 6.38812109,30.2521429 6.44186073,30.5329375 C6.57464471,31.082025 6.62258984,31.6482781 6.58402309,32.2119375 C6.54656075,32.7099618 6.40692874,33.1948761 6.17386636,33.6363304 C5.96835988,34.0042906 5.70113108,34.3340152 5.38390618,34.6110357 C4.94116525,34.9928776 4.43955608,35.3002225 3.89861818,35.5210982 C3.715278,35.6051875 3.56887491,35.6510179 3.47226473,35.6885357 L3.32497964,35.7427589"/>
    <path stroke="url(#C)" stroke-dasharray=".1 1" stroke-linecap="round" stroke-width=".8" d="M37.3522011,9.47433036 C35.4425648,10.4902952 33.3482609,11.1102697 31.1942909,11.29725 C29.4380507,11.419 27.0022964,10.3299911 25.4033818,11.6692768 C22.8991611,13.7668661 18.5163873,13.5619464 17.6664689,13.8523125 C15.57024,14.6893661 15.1784805,16.9594554 15.0853984,18.1238839 C15.0171904,18.9771696 14.5454273,21.520375 13.7333191,22.4670446 C13.2651553,23.1033304 12.7570164,23.6906875 12.2611898,24.2670982 C11.2766413,25.3348748 10.3899085,26.4892268 9.61170636,27.7162054 C9.26902043,28.2896399 8.98751609,28.8976326 8.77184636,29.5301339 C8.57384948,30.1220314 8.43753525,30.7328835 8.365084,31.3529196 L8.32531382,31.7970446 C8.31295691,31.9434732 8.315986,32.0879821 8.30947345,32.231125 C8.29239473,32.5153125 8.31645818,32.8033304 8.32216,33.0794732 C8.36226299,33.6135284 8.31329636,34.150548 8.17727145,34.6684732 C7.9382213,35.5119384 7.42106632,36.2493478 6.71014909,36.7604375 C6.26617547,37.0899623 5.78024837,37.3585423 5.26527273,37.5590446 C5.09007545,37.6349911 4.95098673,37.6769821 4.85909836,37.7116786 L4.71897618,37.7614286"/>
    <path stroke="url(#D)" stroke-dasharray=".1 1" stroke-linecap="round" stroke-width=".8" d="M11.0529745,29.1709911 C11.8693156,28.0097805 12.757632,26.9011066 13.7126767,25.8515179 C14.7667798,24.7290887 15.6568669,23.4626313 16.356396,22.0899107 C16.4393842,21.9103571 16.5105233,21.7243929 16.5846736,21.5399821 C16.6447209,21.3501071 16.720466,21.1649821 16.7674882,20.9704286 C16.8231372,20.7781217 16.8689304,20.5830869 16.9046882,20.3860893 L16.9599958,20.100375 L17.0245422,19.8119821 C17.0469753,19.7164464 17.065524,19.6180893 17.0912,19.5246964 L17.1742505,19.2485446 C17.2287356,19.0632345 17.2934712,18.8811075 17.3681569,18.7030089 C17.4333091,18.5201607 17.5333315,18.3542946 17.6139409,18.1786429 L17.7645669,17.9322143 L17.8401249,17.8090625 L17.9266767,17.6938839 C18.3893307,17.073302 19.0127301,16.591548 19.7292353,16.3008929 C20.4500025,16.0140762 21.1993582,15.805478 21.9644727,15.6786696 C23.4772506,15.4650189 24.9689333,15.1216032 26.4230896,14.6522054 C27.1127095,14.4012624 27.7734548,14.076847 28.3939676,13.6845357 C28.542696,13.5834821 28.6953889,13.4898929 28.8383798,13.384375 L29.2584435,13.0669643"/>
    <path stroke="url(#E)" stroke-dasharray=".1 1" stroke-linecap="round" stroke-width=".8" d="M41.1497991,9.65865179 L40.6420344,9.88496429 C40.3105182,10.0315714 40.2234675,10.07675 39.5888551,10.3115446 C38.9537795,10.5449643 38.1753833,10.8082589 37.2821311,11.1061339 C36.3902598,11.4068393 35.3822585,11.7450625 34.3221124,12.2074554 C33.7709573,12.4463087 33.2335197,12.7157746 32.712302,13.0145982 C32.4500718,13.1813929 32.1709233,13.3336696 31.9141365,13.5246429 C31.7833333,13.61675 31.65155,13.709622 31.5187867,13.8032589 C31.3909413,13.9056875 31.2621752,14.0088155 31.1324885,14.1126429 C30.8746327,14.3129286 30.6151911,14.5416071 30.3363811,14.73925 C30.1947978,14.8362946 30.0578473,14.9424643 29.9099653,15.0338393 C29.7617893,15.1245804 29.6148071,15.2195536 29.4631655,15.3083571 C28.8403185,15.6648631 28.1833539,15.9578451 27.5021409,16.1829018 C26.7992715,16.4122048 26.0832841,16.5989583 25.3580524,16.7421518 C24.626616,16.8953304 23.8818695,17.0210357 23.1442235,17.1890089 C22.7743893,17.2698929 22.4093927,17.3705 22.0479687,17.4833304 C21.6883071,17.5993059 21.3389474,17.7452067 21.0035382,17.9195089 C20.6691565,18.093163 20.3581046,18.3086237 20.0778302,18.5607321 C19.9375945,18.6861052 19.8050329,18.8198421 19.6808678,18.9612143 C19.6207404,19.0336071 19.5652456,19.1100179 19.5071405,19.1840536 C19.4472063,19.2569045 19.3925179,19.3339351 19.3434895,19.4145625 C19.2381117,19.5714595 19.1432754,19.7352146 19.0596102,19.9047411 C19.0176395,19.9895625 18.971232,20.0720804 18.9328071,20.1587143 L18.8250071,20.4221696 C18.7527004,20.5967776 18.6895935,20.7750708 18.6359473,20.9563125 C18.5726927,21.1321339 18.5317109,21.3233839 18.4840384,21.5097946 C18.4623804,21.5997143 18.4335238,21.7047054 18.4178349,21.7822054 L18.3573956,22.0700446 C18.3228907,22.2633929 18.2567853,22.44825 18.2078922,22.6374107 C18.1473104,22.8228214 18.083352,23.0073125 18.0139235,23.1887946 C17.9362362,23.3668125 17.8702644,23.5502143 17.7814764,23.7220268 C17.0875813,25.0589624 16.2171138,26.2961086 15.1935636,27.4000804 C14.24136,28.4975714 13.3111173,29.5420446 12.5233398,30.6019821 C11.7677272,31.5838212 11.1583399,32.6703931 10.714242,33.8277054 C10.6091147,34.0950893 10.5331469,34.3656786 10.4510318,34.6279554 C10.3859242,34.8943304 10.3095911,35.1470179 10.2666671,35.4104821 L10.1937907,35.7931696 C10.1665378,35.9219821 10.1456104,36.0503125 10.1138851,36.1742143 C10.0766896,36.2967232 10.0477084,36.41975 10.0049625,36.5364554 C9.95863527,36.6518482 9.92184964,36.768875 9.86949091,36.8773304 C9.68470267,37.2869394 9.43774542,37.6654047 9.13739527,37.9992768 C8.88074926,38.2774821 8.59481308,38.5270334 8.28458145,38.7435714 C7.85142157,39.0436967 7.38631806,39.2946421 6.89783691,39.4917857 C6.730738,39.5641786 6.59920418,39.608 6.51157436,39.6410446 L6.37835673,39.6899821"/>
    <path stroke="url(#F)" stroke-dasharray=".1 1" stroke-linecap="round" stroke-width=".8" d="M35.2055824,13.5082321 C34.7244915,13.8094911 34.2445053,14.1551161 33.7556991,14.5220089 C33.5178798,14.7139732 33.2711425,14.8998571 33.0332965,15.1096339 C32.7940518,15.3183304 32.5526155,15.5269196 32.3010495,15.7393571 C31.781934,16.1692858 31.2216541,16.546695 30.6283944,16.8660714 C30.0072712,17.1964594 29.3569742,17.468536 28.6858205,17.6788214 C27.3237453,18.1222232 25.8568278,18.328625 24.4219296,18.6988125 C23.7005402,18.8713857 23.008482,19.1496127 22.3680813,19.5245179 C22.052109,19.7166705 21.7598555,19.9455045 21.497378,20.2062768 C21.3667068,20.3372974 21.2442463,20.4762919 21.1306976,20.6224643 L20.9610418,20.8424732 L20.8105316,21.0768125 C20.6135199,21.3927485 20.4452022,21.7257691 20.3076045,22.0718661 C20.1693462,22.4192524 20.05334,22.7751238 19.9602925,23.1373125 C19.9374051,23.2252232 19.9057244,23.3271071 19.8901067,23.4033214 L19.8250704,23.6842232 C19.7847835,23.8722857 19.7193105,24.0530357 19.6675665,24.2374375 C19.546092,24.5987367 19.4020746,24.9520257 19.2363665,25.2952143 C18.5535836,26.6052925 17.7036524,27.8207914 16.7079665,28.9111161 C15.7752471,29.9907946 14.8516327,31.007125 14.0287624,32.0114018 C13.2470085,32.9446556 12.5612421,33.9546045 11.9818898,35.0258929"/>
    <path stroke="url(#G)" stroke-dasharray=".1 1" stroke-linecap="round" stroke-width=".8" d="M43.1681091,10.0159107 C43.1681091,10.0159107 41.7089069,10.99175 40.6235925,11.7173214 C39.5447016,12.4508304 38.0010502,13.5021429 36.2739873,14.9233214 C35.8449611,15.2813571 35.4009587,15.65875 34.9564664,16.0644464 C34.5089271,16.4655625 34.069014,16.9136161 33.5553336,17.3077143 C33.0342366,17.7176338 32.4747051,18.0759474 31.884594,18.377625 C31.2663707,18.6877366 30.6234773,18.9457693 29.9625645,19.1490536 C28.6217464,19.5779375 27.1811464,19.7906429 25.7836664,20.2027143 C25.0820033,20.4012098 24.4138702,20.7036557 23.8013936,21.1000357 C23.201151,21.5179919 22.6940144,22.0562698 22.3120787,22.6808036 C22.2118871,22.8338036 22.1338969,23.0011429 22.0436211,23.1603571 C21.9592075,23.3230268 21.8911153,23.4944732 21.8139982,23.6608929 C21.6741468,24.0014099 21.5537739,24.3496383 21.4534651,24.7038839 L21.377426,24.962875 L21.3076767,25.2376518 C21.266098,25.4222321 21.2002509,25.5991518 21.1456025,25.7792679 C21.0852078,25.957375 21.0153695,26.1318304 20.9478207,26.3065625 C20.8703918,26.4768214 20.8019344,26.6513571 20.7172891,26.8173304 C20.0489568,28.1077875 19.2201403,29.3081622 18.2506469,30.3897679 C17.3362802,31.4563929 16.4170491,32.4492589 15.5681196,33.4070714 C14.7626938,34.2969437 14.0139235,35.2367133 13.3262449,36.2208125 C13.010186,36.6787143 12.731376,37.1345268 12.4842022,37.5756429 C12.2287875,38.0105357 12.0512204,38.4644286 11.8090267,38.86225 C11.3904881,39.5423378 10.8308638,40.1242333 10.1681325,40.5684464 C9.74942489,40.8561872 9.30457246,41.1037118 8.83948418,41.3077321 C8.67942345,41.3800536 8.55501691,41.4296071 8.47094182,41.4625536 L8.34380018,41.5135"/>
    <path stroke="url(#H)" stroke-dasharray=".1 1" stroke-linecap="round" stroke-width=".8" d="M37.4753782,16.4023036 C37.0831644,16.7900179 36.6752913,17.1931845 36.2517591,17.6118036 C36.0440258,17.8235982 35.8192405,18.0293661 35.5945622,18.2410536 C35.4817909,18.3465982 35.3580971,18.4414375 35.2389647,18.5433125 C35.1199036,18.6453839 34.9970295,18.7445268 34.8670636,18.8362679 C33.7924604,19.6320073 32.5860112,20.2311917 31.303356,20.6061875 C30.6423015,20.8125089 29.9590455,20.9789286 29.2696422,21.1436875 C28.5805062,21.3089196 27.8831471,21.4726071 27.2043724,21.7032857 C26.5190278,21.9189748 25.8719506,22.2417292 25.2870291,22.6596339 C24.7076183,23.0897178 24.2159539,23.6272495 23.8387138,24.2430625 C23.4649735,24.8647945 23.1698936,25.5307247 22.9602775,26.2255 C22.8512361,26.5767857 22.7424532,26.9271875 22.6339285,27.2767054 C22.5776527,27.4527492 22.5105486,27.6251299 22.4330018,27.7928571 L22.2163416,28.3006964 C21.5615594,29.5739618 20.7538456,30.7621881 19.81119,31.8389107 C18.917136,32.8971429 18.0064844,33.8743036 17.1375005,34.7916696 C16.2682405,35.7088661 15.4599187,36.5859732 14.7489198,37.4251161 C14.572894,37.6361696 14.4006219,37.8427173 14.2321035,38.0447589 C14.069958,38.2509792 13.9116732,38.4523333 13.7572489,38.6488214"/>
    <path stroke="url(#I)" stroke-dasharray=".1 1" stroke-linecap="round" stroke-width=".8" d="M40.6944376,15.7193661 C40.118162,16.3885179 39.4661591,17.1424821 38.7317649,17.9446429 C37.9674481,18.8369253 37.1134835,19.6479614 36.1833818,20.3649196 C35.107722,21.1233197 33.9148225,21.6990832 32.6525309,22.0691161 C31.3525075,22.4798304 29.9617805,22.7231071 28.6350476,23.2090446 C27.968907,23.447396 27.3433832,23.787176 26.7804867,24.2164286 C26.2205794,24.6557418 25.7431182,25.1913751 25.3704182,25.7982946 C25.0004609,26.4098384 24.7000232,27.0609907 24.4747249,27.7395714 C24.3603797,28.0827321 24.2463107,28.425131 24.1325178,28.7667679 C24.1031178,28.8530357 24.0769251,28.9405804 24.0448256,29.0255714 L23.93601,29.2751518 L23.7186282,29.7731429 C23.0856128,31.0334435 22.3029672,32.2124732 21.3877071,33.2845982 C20.5122998,34.3328839 19.6083478,35.2923393 18.7274525,36.174375 C17.847858,37.0579732 17.0054322,37.880125 16.2340296,38.6445 C15.4661373,39.4131518 14.7599225,40.1090536 14.1578105,40.75675 C13.8793304,41.0642973 13.5834912,41.3555964 13.271748,41.6292143 C13.0034577,41.8577446 12.7215014,42.0696534 12.4274513,42.2637589"/>
    <path stroke="url(#J)" stroke-dasharray=".1 1" stroke-linecap="round" stroke-width=".8" d="M43.8942624,14.2996161 C43.8942624,14.2996161 43.7875849,14.4736161 43.0811742,15.4979911 C42.7259865,16.0088393 42.2921227,16.6275982 41.7763042,17.3246071 C41.2603698,18.0214107 40.6612424,18.7958304 39.9601147,19.6022857 C39.7856302,19.8052232 39.6023345,20.0061518 39.416188,20.2116429 C39.2187804,20.409375 39.0289722,20.6201607 38.8164725,20.8159732 C38.3825881,21.2258017 37.9185326,21.6023122 37.4282402,21.9423125 C36.3530455,22.6558814 35.1753577,23.2005942 33.9359567,23.5575893 C32.6611905,23.9563482 31.300318,24.2155089 30.0206607,24.7473661 C29.3771467,25.0077213 28.7765637,25.3639958 28.2392345,25.8041339 C27.7078607,26.2581486 27.2504248,26.7924736 26.8834313,27.3878304 C26.5188973,27.9874217 26.2167473,28.6229348 25.9817333,29.284375 L25.6265724,30.2848214 C25.5059105,30.6195108 25.3678443,30.9476386 25.2129411,31.2678571 C24.5985741,32.507537 23.840544,33.670321 22.95454,34.7321429 C22.1348749,35.7242657 21.2589288,36.668302 20.3310444,37.5595714 C19.4506302,38.4114911 18.591874,39.1877143 17.7825365,39.8836786 C16.9770211,40.5839554 16.2169242,41.2002589 15.5446442,41.7468125 C15.2057869,42.0170268 14.8959465,42.2759286 14.594552,42.5045089 C14.2932376,42.7311875 14.0040307,42.9216161 13.7391367,43.0864821 C13.3287084,43.3402098 12.9049098,43.5715436 12.4695913,43.7794732 C12.1682769,43.9232232 12.0050267,43.9925357 12.0050267,43.9925357"/>
    <path stroke="url(#K)" stroke-dasharray=".1 1" stroke-linecap="round" stroke-width=".8" d="M43.9840482,17.3676875 C43.6715529,17.8862232 43.2858071,18.5128304 42.8076295,19.2084554 C42.2761671,19.991008 41.695271,20.7386673 41.0685036,21.4468482 C40.3221736,22.2871213 39.4616894,23.0180823 38.5123073,23.6182768 C37.4370083,24.2629901 36.2802298,24.7601456 35.0729527,25.0964286 C33.7859305,25.4153119 32.5253708,25.8332183 31.3024918,26.3464286 C30.6927085,26.636096 30.1290953,27.0146766 29.6299971,27.4698482 C29.1327346,27.9343955 28.7024073,28.4660434 28.3514,29.0494911 C28.2666924,29.1976518 28.1715433,29.3396071 28.0953438,29.4927054 L27.8627453,29.9494286 C27.7890582,30.1032411 27.72518,30.2610357 27.6558762,30.4162768 L27.5541076,30.6499732 L27.4637873,30.8922589 C27.237368,31.5440922 26.9773359,32.1837059 26.6847407,32.8085179 C26.0844822,34.0123645 25.3533473,35.1460633 24.5046416,36.1889821 C23.7155896,37.1624241 22.8626731,38.0820756 21.9515635,38.9418214 C21.0888962,39.7668214 20.2192531,40.4863482 19.4013005,41.1281161 C19.1948472,41.2861518 18.9927861,41.4408006 18.7951171,41.5920625 C18.5959455,41.741125 18.3951613,41.87825 18.2028675,42.0165536 C17.8201507,42.2954375 17.4436525,42.5421071 17.0914049,42.7753571"/>
    <path stroke="url(#L)" stroke-dasharray=".1 1" stroke-linecap="round" stroke-width=".8" d="M43.5534184,21.2775357 C43.0146529,22.0096259 42.4066687,22.6879168 41.7379149,23.3029821 C40.941829,24.0299385 40.048964,24.6427014 39.08485,25.12375 C38.5591363,25.3854754 38.0190786,25.6172053 37.467262,25.8178304 C36.9036907,26.0243304 36.3207065,26.2116518 35.7310227,26.4053304 C34.5085483,26.747267 33.3468177,27.2783309 32.2877749,27.9793482 C31.2423385,28.7649913 30.4021447,29.7925192 29.8389331,30.9741964 C29.7629029,31.1195268 29.7000315,31.2707054 29.6298813,31.4185982 C29.5605151,31.5664911 29.4922002,31.7151071 29.4336051,31.8712768 C29.3119604,32.1801071 29.1891396,32.4860179 29.0568575,32.7933929 C28.7981911,33.4037124 28.5054413,33.9989521 28.179998,34.5762857 C27.5476142,35.6985843 26.8188089,36.7634965 26.0018589,37.7589286 C25.2371072,38.6878027 24.4074136,39.560999 23.5190556,40.3719107 C23.0834635,40.744375 22.6716229,41.1209464 22.2402982,41.4449375 C22.0267205,41.6092232 21.8228093,41.7787768 21.6117975,41.9305893 C21.3998502,42.0812143 21.1919714,42.2289196 20.9881611,42.3737054 C20.7869047,42.5219196 20.5811493,42.6542411 20.3782269,42.7807768 C20.1761865,42.9084911 19.9789215,43.0331607 19.7864316,43.1547857 C19.3934249,43.3855625 19.0136927,43.5933482 18.6610976,43.7941786 C18.2995727,43.9744762 17.9619924,44.1428452 17.6483567,44.2992857 C17.333064,44.4542054 17.0403915,44.5864821 16.7750075,44.7051607 C16.2438296,44.940875 15.8203984,45.111125 15.5307905,45.2245089 C15.2402829,45.3352232 15.085336,45.3944018 15.085336,45.3944018"/>
    <path stroke="url(#M)" stroke-dasharray=".1 1" stroke-linecap="round" stroke-width=".8" d="M48.1844173,16.3561429 C48.1844173,16.3561429 45.9978235,20.5578125 45.8439991,20.8100446 C45.6867982,21.0600446 45.4517407,21.4246071 45.1236189,21.8682768 C44.2127524,23.0970127 43.0952967,24.1573611 41.8213485,25.0017857 C41.4228805,25.2577768 40.997908,25.5096339 40.5432147,25.7419643 C40.088468,25.97375 39.6088738,26.1940268 39.1104547,26.4057321 C38.1152024,26.8311429 37.0398484,27.2166518 36.0027411,27.7624732 C34.9296694,28.3071674 33.9848505,29.0749528 33.2313278,30.0145982 C32.851657,30.5015099 32.5141296,31.0199973 32.2224178,31.5644196 C32.0871155,31.8439464 31.9383425,32.1128839 31.8180609,32.4059286 L31.6259364,32.8411964 L31.4194504,33.2671518 C30.8762738,34.4019914 30.2694867,35.5051339 29.6019958,36.5712946 C28.9512884,37.605146 28.2193969,38.5853775 27.4132727,39.5026786 C27.025656,39.9537411 26.6041758,40.3601696 26.1980015,40.7626607 C25.9850861,40.9538214 25.7745345,41.1428095 25.5663469,41.329625 L25.4102864,41.4686607 L25.2468936,41.5970982 L24.9233333,41.8512589 C24.5037151,42.1997054 24.0554453,42.4843482 23.6360676,42.778125"/>
    <path stroke="url(#N)" stroke-dasharray=".1 1" stroke-linecap="round" stroke-width=".8" d="M37.8801805,28.6226161 C37.7384013,28.7143661 37.5991611,28.8096696 37.4637785,28.9101786 C37.3252422,29.0066071 37.1932451,29.1113839 37.0615064,29.2165446 C36.7983782,29.4268392 36.546641,29.651063 36.3073696,29.8882589 C36.0689674,30.1260889 35.8428791,30.3760027 35.6299936,30.6370179 C35.4191867,30.8996607 35.2181798,31.1703393 35.0334587,31.4524196 C34.9358596,31.5898125 34.8523815,31.7366875 34.7642884,31.8803839 L34.6334405,32.0968214 L34.512954,32.3194821 C34.3464342,32.6130714 34.2051093,32.9201696 34.0574322,33.2238036 L34.0529776,33.2324821 C33.834892,33.6244464 33.6177062,34.0171071 33.408788,34.4157679 L32.7749329,35.6090179 L32.45368,36.2045536 L32.1209433,36.7948304 C32.0126176,36.9930446 31.8923984,37.1847321 31.7763931,37.3788125 C31.6574389,37.5712411 31.5479907,37.7693393 31.4201453,37.9564018 L31.0473622,38.5242589 C30.9239891,38.7142411 30.7838313,38.8930089 30.6528409,39.0778304 C30.3955553,39.4516696 30.0979204,39.7952857 29.8123484,40.1480268 C29.6706136,40.3254018 29.5070605,40.4840714 29.3553922,40.6530357 C29.1973984,40.8160893 29.0541847,40.9937321 28.883932,41.1448214 C28.5479524,41.4507321 28.2292653,41.7766429 27.8639658,42.0485893 L27.3308102,42.4734464 C27.1455011,42.6046964 26.9552207,42.7292411 26.767426,42.8569554 L26.4838764,43.0459286 C26.3910689,43.1113882 26.2943063,43.1710261 26.1941438,43.2245 L25.5986869,43.5547857 L25.3010698,43.7198393 C25.2025798,43.7759821 25.0950025,43.8161518 24.99245,43.8650804 L24.3702213,44.1458036 L24.059294,44.2859286 L23.7417473,44.3993929 L23.1065291,44.6257054 C22.6805409,44.7699464 22.2655109,44.9351786 21.8375627,45.0819554 C21.412611,45.2314851 20.9857052,45.3749911 20.5568453,45.5124732 C19.6983742,45.7848839 18.8303971,46.0259821 17.9576804,46.2433393"/>
    <path stroke="url(#O)" stroke-dasharray=".1 1" stroke-linecap="round" stroke-width=".8" d="M45.9370545,25.3979554 L45.3013464,25.9192143 C45.0841427,26.0862768 45.1554689,26.0350179 44.935842,26.1991518 C44.7122238,26.3574464 44.4834205,26.5083482 44.2573791,26.6633571 L43.5645636,27.1056607 L42.159502,27.9561964 C41.92685,28.0997054 41.690768,28.2381964 41.4610293,28.3859107 C41.2321458,28.5347946 40.9971507,28.6748304 40.7747887,28.8330446 C40.5502796,28.9879643 40.3224831,29.1384911 40.1085135,29.3074732 L39.7827258,29.5543125 C39.6750327,29.6376696 39.57436,29.7295982 39.4698296,29.8168125 L39.1590716,30.0815536 L38.8657933,30.365375 L38.5730049,30.6494732 L38.3012776,30.9537321 L38.0295504,31.2578214 L37.7802562,31.5808125 L37.5318885,31.9043304 C37.447368,32.010875 37.3799975,32.1299107 37.3031922,32.2421071 L37.0794938,32.5833482 L36.9676313,32.7539643 L36.8679296,32.9321696 L36.4702813,33.6454196 L36.4694438,33.646875 L36.4640984,33.6555446 C36.277542,33.9372589 36.0972576,34.2235446 35.9321098,34.5201518 C35.7641378,34.8147411 35.6052353,35.1153661 35.4487649,35.417625 L34.5180144,37.2415893 C34.2015724,37.8480268 33.8693791,38.4485357 33.5045429,39.0305982 C33.3219065,39.3214375 33.1325973,39.6086339 32.9319289,39.8880714 C32.7325345,40.1684286 32.5239371,40.4428482 32.3034193,40.7075804 C32.0848436,40.973875 31.855292,41.2317679 31.6141585,41.4785268 C31.3747178,41.7268393 31.1225638,41.9631875 30.8621867,42.1896786 C30.602264,42.4170714 30.3301804,42.6299643 30.0523504,42.8349107 L29.6260593,43.1289554 L29.1864402,43.4021696 C28.8880302,43.5747946 28.588364,43.7464196 28.276822,43.8940357 C27.9709016,44.0532411 27.649622,44.1791339 27.3325385,44.3123304 C27.0105996,44.4339286 26.6889369,44.5556161 26.3598529,44.6549375"/>
    <path stroke="url(#P)" stroke-dasharray=".1 1" stroke-linecap="round" stroke-width=".8" d="M46.2253795,27.815625 C45.5616522,28.3130625 44.8813807,28.7878571 44.211034,29.2748839 C43.8761324,29.5188125 43.5427007,29.7646518 43.2167795,30.0198036 C43.0537431,30.14725 42.8902435,30.2741429 42.7320625,30.4074196 C42.5717435,30.5381518 42.41293,30.6706161 42.2591502,30.8088214 C42.1023145,30.9435714 41.9494227,31.0826071 41.8004745,31.2259286 C41.6481825,31.3656012 41.5007995,31.5102946 41.3583253,31.6600089 L41.1418344,31.8814375 L40.9345555,32.1115804 L40.7273478,32.341625 L40.5304569,32.580625 C40.3980856,32.7390089 40.2676922,32.8989464 40.1468315,33.0663393 C40.0240464,33.2322143 39.8958535,33.3940714 39.7831802,33.5672321 C39.6691438,33.7392232 39.5461984,33.9051786 39.4394229,34.0820179 L39.1148915,34.6093036 L39.108272,34.6188929 L39.107586,34.6197054 C38.9007939,34.8815537 38.7112236,35.1566111 38.5400769,35.4431339 C38.3670802,35.7294196 38.2087835,36.0252768 38.0584158,36.3259196 C37.7574044,36.9269643 37.4831736,37.5435357 37.1975482,38.1567321 C37.0541118,38.4631875 36.9093569,38.769375 36.7569847,39.0723661 C36.6046125,39.3753571 36.4484629,39.6770625 36.2794575,39.9721161 C36.1973245,40.1209196 36.1108351,40.2674375 36.0213789,40.4122946 C35.9352993,40.5590893 35.8423062,40.7017679 35.748636,40.8441786 C35.562436,41.1294524 35.3634663,41.4063661 35.1517269,41.6749196 C34.9411962,41.9436696 34.717774,42.2029375 34.4811218,42.4497768 C34.366934,42.5773125 34.2403091,42.6925268 34.1177913,42.8119286 C33.9970642,42.9334375 33.865762,43.0432589 33.736402,43.1553661 C33.6091624,43.2700179 33.4743144,43.375375 33.3379964,43.4789821 L33.1345305,43.6356339 L32.9231535,43.7811696 C32.6440762,43.9796339 32.3488289,44.1535357 32.0523967,44.3237946 L31.5991556,44.5638929 L31.1330231,44.7767768 C30.9790562,44.8511786 30.8176413,44.9072321 30.6593445,44.9708571 C30.5004153,45.0329375 30.3423769,45.0974821 30.1794564,45.1477768 L29.6942673,45.3089018 L29.2015945,45.4434554 C28.8744884,45.5385 28.5387136,45.5956429 28.2079636,45.6733304 L28.2178438,45.6709554 L26.5574922,46.1224732 C26.0038724,46.2726518 25.4466444,46.4098571 24.8898084,46.5479821 C24.3322864,46.6834554 23.7752811,46.8208482 23.214338,46.9417321 C22.6539443,47.0643512 22.0924132,47.1813542 21.5297447,47.2927411"/>
    <path stroke="url(#Q)" stroke-dasharray=".1 1" stroke-linecap="round" stroke-width=".8" d="M34.9950516,45.8661429 C34.2207982,46.1466786 31.4096415,46.9550982 30.5981569,47.1058929 L30.6029144,47.105 L27.2062433,47.9843036 C26.9229965,48.0567857 26.6394558,48.1278125 26.3538393,48.1897857 C26.0692918,48.2565268 25.782428,48.3129375 25.4960185,48.3714643 C25.2093775,48.4288839 24.9213822,48.4804554 24.6328613,48.5295804 C24.3449996,48.5815179 24.0551067,48.6245179 23.7640913,48.6627679"/>
    <path stroke="url(#R)" stroke-dasharray=".1 1" stroke-linecap="round" stroke-width=".8" d="M45.8143229,30.0980446 C45.0436762,30.7750839 44.309921,31.4931716 43.6162364,32.2491964 C43.4439939,32.4387024 43.2755438,32.6314435 43.110886,32.8274196 C42.9450522,33.0223185 42.7832779,33.220506 42.6255633,33.4219821 C42.3095875,33.8243036 42.0093808,34.238122 41.7249433,34.6634375 L41.7139227,34.6769554 C41.594238,34.8243839 41.4609936,34.9595893 41.3524096,35.1159554 C41.2395704,35.2693818 41.1346759,35.4285204 41.0381415,35.5927411 L40.8934756,35.8399464 C40.8470325,35.9234821 40.8061665,36.0106696 40.762512,36.0959375 C40.6737507,36.2655804 40.593658,36.4403661 40.5162915,36.6168304 C40.3580482,36.9675625 40.2152444,37.3269643 40.0716565,37.6870179 C39.9245942,38.0455982 39.786138,38.4093393 39.62826,38.7659643 C39.5527911,38.9454286 39.4690278,39.1224643 39.3883204,39.3002857 C39.3106687,39.4794018 39.217542,39.6522143 39.1281749,39.8263929 C39.0413647,40.0016696 38.9440151,40.1720179 38.8459973,40.3418214 L38.7000485,40.596875 L38.5410302,40.8446339 C38.4376624,41.0113482 38.3253839,41.1723447 38.2046853,41.3269196 C38.0842522,41.4819286 37.9742695,41.6433304 37.8396085,41.788125 C37.7089656,41.9346339 37.58349,42.0869107 37.443154,42.2207411 L37.0187516,42.6201339"/>
    <path stroke="url(#S)" stroke-dasharray=".1 1" stroke-linecap="round" stroke-width=".8" d="M31.2807091,48.5877054 L30.506028,48.8033304 C30.0419178,48.9357857 29.4196356,49.0969196 28.7985116,49.2631518 C28.4877536,49.3454018 28.1791873,49.4375089 27.886586,49.5089018 C27.5929067,49.5754464 27.3155845,49.6231875 27.0763576,49.6571161 C26.8095119,49.6979447 26.5405788,49.7236403 26.2708422,49.7340804"/>
    <path stroke="url(#T)" stroke-dasharray=".1 1" stroke-linecap="round" stroke-width=".8" d="M48.1470704,30.9304821 C47.7575293,31.356625 45.5863125,33.5992321 45.2241135,34.0474464 C44.8632953,34.4969643 44.5104953,34.9520446 44.1781862,35.4218214 L44.1752907,35.4253929 L44.1663015,35.4351607 C44.0928282,35.5150446 44.0159071,35.5911786 43.9454005,35.6734286 C43.8785824,35.7590625 43.8052695,35.8387589 43.7439125,35.9287857 C43.6823507,36.0184375 43.6153187,36.1036964 43.5607505,36.1984286 C43.5036522,36.2911696 43.4454936,36.3829196 43.3950415,36.4801429 C43.2886847,36.6705714 43.1921993,36.8672054 43.1035716,37.0680446 C43.0099282,37.2663214 42.9288109,37.4710893 42.8414038,37.6737589 C42.6687991,38.0798929 42.5012547,38.4914375 42.3209436,38.8995893 C42.2310598,39.1037232 42.1350733,39.3056518 42.0400667,39.5082232 C41.9427795,39.7105179 41.839434,39.9083393 41.7293711,40.1035179"/>
  </g>
</svg>
